<?xml version="1.0" encoding="UTF-8"?>
<svg width="413px" height="97px" viewBox="0 0 413 97" version="1.1" xmlns="http://www.w3.org/2000/svg" xmlns:xlink="http://www.w3.org/1999/xlink">
    <title>grant_eps_white</title>
    <g id="Page-2" stroke="none" stroke-width="1" fill="none" fill-rule="evenodd">
        <g id="Artboard" transform="translate(-335.000000, -107.000000)" fill="#FFFFFF" fill-rule="nonzero">
            <g id="Group-2" transform="translate(0.000000, 0.000000)">
                <g id="grant_eps_white" transform="translate(335.557300, 107.142857)">
                    <g id="g10" transform="translate(206.043956, 48.235724) scale(-1, 1) rotate(-180.000000) translate(-206.043956, -48.235724) ">
                        <path d="M159.176134,66.5293955 L165.325421,66.5293955 L175.999814,39.372247 L169.963529,39.372247 L167.624236,45.5930051 L156.604093,45.5930051 L154.227695,39.372247 L148.577637,39.372247 L159.176134,66.5293955 Z M162.171508,61.0785249 L162.090552,61.0785249 L158.164183,49.874388 L166.10631,49.874388 L162.171508,61.0785249" id="path12"></path>
                        <path d="M178.838336,66.5300694 L184.722829,66.5300694 C190.563472,66.5300694 197.532439,66.7234678 197.532439,59.1708212 C197.532439,55.9837904 195.392163,53.3424194 191.926232,52.8712213 L191.926232,52.799455 C193.407053,52.6810237 194.262151,51.1997063 194.810291,49.9953463 L199.171799,39.3688777 L193.093348,39.3688777 L189.824748,47.8534755 C189.038799,49.874388 188.3473,50.6553942 186.045112,50.6553942 L184.289377,50.6553942 L184.289377,39.3688777 L178.838336,39.3688777 L178.838336,66.5300694 Z M184.289377,54.9295331 L186.087276,54.9295331 C188.770632,54.9295331 191.852022,55.3237424 191.852022,58.7082149 C191.852022,61.9749299 188.81111,62.2486864 186.087276,62.2486864 L184.289377,62.2486864 L184.289377,54.9295331" id="path14"></path>
                        <polyline id="path16" points="207.933605 62.2486864 200.143272 62.2486864 200.143272 66.5300694 221.178353 66.5300694 221.178353 62.2486864 213.379587 62.2486864 213.379587 39.3688777 207.933605 39.3688777 207.933605 62.2486864"></polyline>
                        <path d="M239.245046,61.5478698 C237.531477,62.2881074 235.622263,62.7171891 233.716422,62.7171891 C231.846,62.7171891 229.429125,61.8972673 229.429125,58.9405289 C229.429125,54.2334335 241.35159,56.2187998 241.35159,47.1164388 C241.35159,41.1621932 236.632527,38.9017228 231.146068,38.9017228 C228.186112,38.9017228 226.85877,39.2866665 224.173727,39.9546323 L224.674643,44.8571477 C226.551812,43.8438275 228.690401,43.1824318 230.832363,43.1824318 C232.896742,43.1824318 235.661054,44.2353414 235.661054,46.6853356 C235.661054,51.8604281 223.743648,49.7204105 223.743648,58.7088888 C223.743648,64.7802179 228.452592,66.9965504 233.249239,66.9965504 C235.581785,66.9965504 237.762539,66.6847207 239.751022,66.0213035 L239.245046,61.5478698" id="path18"></path>
                        <path d="M276.130649,39.7538214 C274.145539,39.2900358 272.000204,38.9049236 269.935825,38.9049236 C261.135227,38.9049236 255.017985,43.3008631 255.017985,52.4881307 C255.017985,61.7801838 260.705148,66.9965504 269.935825,66.9965504 C271.726977,66.9965504 274.105061,66.6451313 276.088485,65.864799 L275.70057,61.2747872 C273.636191,62.4441064 271.769142,62.7144936 269.81945,62.7144936 C264.20987,62.7144936 260.705148,58.43648 260.705148,52.8712213 C260.705148,47.3467312 264.128914,43.1824318 269.935825,43.1824318 C272.08116,43.1824318 274.60429,43.6529561 275.894528,44.3109824 L276.130649,39.7538214" id="path20"></path>
                        <path d="M291.977797,66.9965504 C300.506855,66.9965504 305.301815,61.2358717 305.301815,53.0277258 C305.301815,44.821096 300.582751,38.9049236 291.977797,38.9049236 C283.256469,38.9049236 278.660526,44.7024963 278.660526,53.0277258 C278.660526,61.3543029 283.330679,66.9965504 291.977797,66.9965504 M291.977797,43.1824318 C297.545213,43.1824318 299.616338,48.1265582 299.616338,53.0277258 C299.616338,57.8151791 297.390047,62.7144936 291.977797,62.7144936 C286.567234,62.7144936 284.346002,57.8151791 284.346002,53.0277258 C284.346002,48.1265582 286.412068,43.1824318 291.977797,43.1824318" id="path22"></path>
                        <path d="M308.917852,66.5293955 L314.372266,66.5293955 L314.372266,50.8455918 C314.372266,46.2148113 315.849714,43.1824318 320.022324,43.1824318 C324.184815,43.1824318 325.670696,46.2148113 325.670696,50.8455918 L325.670696,66.5293955 L331.12005,66.5293955 L331.12005,49.1728975 C331.12005,41.8992299 326.991291,38.9017228 320.022324,38.9017228 C313.049984,38.9017228 308.917852,41.8992299 308.917852,49.1728975 L308.917852,66.5293955" id="path24"></path>
                        <polyline id="path26" points="335.208331 66.5293955 341.905758 66.5293955 352.263073 46.2148113 352.34403 46.2148113 352.34403 66.5293955 357.564009 66.5293955 357.564009 39.372247 350.903686 39.372247 340.50758 59.6821141 340.42831 59.6821141 340.42831 39.372247 335.208331 39.372247 335.208331 66.5293955"></polyline>
                        <path d="M382.213441,39.7538214 C380.231704,39.2900358 378.086369,38.9049236 376.023676,38.9049236 C367.219705,38.9049236 361.104149,43.3008631 361.104149,52.4881307 C361.104149,61.7801838 366.791312,66.9965504 376.023676,66.9965504 C377.813142,66.9965504 380.187853,66.6451313 382.171276,65.864799 L381.788422,61.2747872 C379.720669,62.4441064 377.855307,62.7144936 375.908988,62.7144936 C370.301095,62.7144936 366.791312,58.43648 366.791312,52.8712213 C366.791312,47.3467312 370.215079,43.1824318 376.023676,43.1824318 C378.162265,43.1824318 380.695515,43.6529561 381.980692,44.3109824 L382.213441,39.7538214" id="path28"></path>
                        <polyline id="path30" points="386.345573 66.5293955 391.796614 66.5293955 391.796614 39.372247 386.345573 39.372247 386.345573 66.5293955"></polyline>
                        <polyline id="path32" points="396.078852 66.5293955 401.529893 66.5293955 401.529893 43.6529561 412.087912 43.6529561 412.087912 39.372247 396.078852 39.372247 396.078852 66.5293955"></polyline>
                        <polyline id="path34" points="148.658593 27.6224503 164.708131 27.6224503 164.708131 23.3483114 154.109634 23.3483114 154.109634 16.6524805 163.810868 16.6524805 163.810868 12.371603 154.109634 12.371603 154.109634 4.74786397 164.784028 4.74786397 164.784028 0.467154909 148.658593 0.467154909 148.658593 27.6224503"></polyline>
                        <polyline id="path36" points="169.258536 27.6224503 175.96271 27.6224503 186.320025 7.31763714 186.397608 7.31763714 186.397608 27.6224503 191.617587 27.6224503 191.617587 0.467154909 184.960638 0.467154909 174.556098 20.7751689 174.480202 20.7751689 174.480202 0.467154909 169.258536 0.467154909 169.258536 27.6224503"></polyline>
                        <path d="M217.906379,22.3710428 C215.803209,23.3449421 213.074315,23.8088961 210.886815,23.8088961 C204.541884,23.8088961 201.042221,19.5313879 201.042221,13.9674769 C201.042221,8.44635617 204.465988,4.28407837 210.269525,4.28407837 C211.755406,4.28407837 212.919149,4.43872973 213.853517,4.66902211 L213.853517,11.7497967 L208.087085,11.7497967 L208.087085,16.0305058 L219.068436,16.0305058 L219.068436,1.40163319 C216.189436,0.625175574 213.189003,0 210.269525,0 C201.468927,0 195.353372,4.39914033 195.353372,13.5791639 C195.353372,22.8777872 201.042221,28.0896052 210.269525,28.0896052 C213.425124,28.0896052 215.91621,27.6652405 218.257189,26.9610546 L217.906379,22.3710428" id="path38"></path>
                        <polyline id="path40" points="223.43163 27.6224503 228.886044 27.6224503 228.886044 4.74786397 239.439004 4.74786397 239.439004 0.467154909 223.43163 0.467154909 223.43163 27.6224503"></polyline>
                        <path d="M252.445943,27.6224503 L258.601977,27.6224503 L269.27637,0.463954064 L263.240084,0.463954064 L260.899105,6.68926072 L249.878962,6.68926072 L247.505937,0.463954064 L241.854193,0.463954064 L252.445943,27.6224503 Z M255.446377,22.1801714 L255.373854,22.1801714 L251.433993,10.9733391 L259.381179,10.9733391 L255.446377,22.1801714" id="path42"></path>
                        <polyline id="path44" points="271.919248 27.6224503 278.618361 27.6224503 288.980737 7.31763714 289.054946 7.31763714 289.054946 27.6224503 294.276612 27.6224503 294.276612 0.467154909 287.61629 0.467154909 277.213437 20.7751689 277.13754 20.7751689 277.13754 0.467154909 271.919248 0.467154909 271.919248 27.6224503"></polyline>
                        <path d="M298.727508,27.6224503 L306.167033,27.6224503 C314.497073,27.6224503 321.862388,24.8190154 321.862388,14.0431179 C321.862388,3.2737906 314.497073,0.467154909 306.167033,0.467154909 L298.727508,0.467154909 L298.727508,27.6224503 Z M304.180236,4.74786397 L307.217775,4.74786397 C311.771553,4.74786397 316.176912,8.13048331 316.176912,14.0431179 C316.176912,19.9624912 311.771553,23.3449421 307.217775,23.3449421 L304.180236,23.3449421 L304.180236,4.74786397" id="path46"></path>
                        <path d="M148.933507,82.3467924 C149.565976,82.0735413 150.473358,81.8334779 151.638788,81.8334779 C153.490658,81.8334779 155.561784,82.7908675 155.561784,85.2039677 C155.561784,88.6950789 150.078697,88.7136101 150.078697,91.1088529 C150.078697,92.6494702 151.434711,93.1627847 152.669291,93.1627847 C153.473792,93.1627847 154.313711,93.009481 154.843299,92.7185411 L155.032196,93.7952043 C154.212516,94.1024854 153.268029,94.1880659 152.68447,94.1880659 C150.577926,94.1880659 148.901461,92.9916237 148.901461,91.0753283 C148.901461,87.9435541 154.382861,87.6514349 154.382861,85.3067317 C154.382861,83.6107892 153.165147,82.859433 151.691072,82.859433 C150.577926,82.859433 149.754873,83.1146582 149.053254,83.5609234 L148.933507,82.3467924 Z M164.780654,90.7646779 L163.70124,90.7646779 L163.70124,85.9398252 C163.70124,84.4834407 163.085637,82.7573429 161.11402,82.7573429 C159.623079,82.7573429 159.039521,83.8168226 159.039521,85.4600353 L159.039521,90.7646779 L157.96348,90.7646779 L157.96348,85.1862788 C157.96348,83.2693096 158.78316,81.8334779 160.941988,81.8334779 C162.760126,81.8334779 163.411148,82.8067033 163.77039,83.5944481 L163.805809,83.5944481 L163.805809,82.0400166 L164.848118,82.0400166 C164.780654,82.7415071 164.780654,83.4253087 164.780654,84.0926006 L164.780654,90.7646779 Z M167.61749,78.4449623 L168.695217,78.4449623 L168.695217,83.5253772 L168.728949,83.5253772 C169.261909,82.3986798 170.083276,81.8334779 171.454469,81.8334779 C173.854479,81.8334779 175.050267,83.8168226 175.050267,86.4024315 C175.050267,89.0550897 174.026511,90.9700373 171.454469,90.9700373 C169.602599,90.9700373 168.934712,89.6551639 168.661485,89.1762164 L168.626067,89.1762164 L168.695217,90.7646779 L167.61749,90.7646779 L167.61749,78.4449623 Z M173.871345,86.4024315 C173.871345,84.7085106 173.340071,82.7573429 171.284124,82.7573429 C169.363104,82.7573429 168.695217,84.8111061 168.695217,86.4024315 C168.695217,87.9949361 169.363104,90.0486994 171.284124,90.0486994 C173.340071,90.0486994 173.871345,88.0975316 173.871345,86.4024315 M177.45365,78.4449623 L178.529691,78.4449623 L178.529691,83.5253772 L178.56511,83.5253772 C179.096384,82.3986798 179.91775,81.8334779 181.29063,81.8334779 C183.69064,81.8334779 184.888115,83.8168226 184.888115,86.4024315 C184.888115,89.0550897 183.860985,90.9700373 181.29063,90.9700373 C179.43876,90.9700373 178.770873,89.6551639 178.497646,89.1762164 L178.463914,89.1762164 L178.529691,90.7646779 L177.45365,90.7646779 L177.45365,78.4449623 Z M183.707506,86.4024315 C183.707506,84.7085106 183.176232,82.7573429 181.118598,82.7573429 C179.199265,82.7573429 178.529691,84.8111061 178.529691,86.4024315 C178.529691,87.9949361 179.199265,90.0486994 181.118598,90.0486994 C183.176232,90.0486994 183.707506,88.0975316 183.707506,86.4024315 M186.788895,86.4024315 C186.788895,84.0235298 188.036968,81.8334779 190.867057,81.8334779 C193.693772,81.8334779 194.943532,84.0235298 194.943532,86.4024315 C194.943532,88.7826809 193.693772,90.9700373 190.867057,90.9700373 C188.036968,90.9700373 186.788895,88.7826809 186.788895,86.4024315 M187.969505,86.4024315 C187.969505,88.4226701 188.981455,90.0486994 190.867057,90.0486994 C192.750972,90.0486994 193.762922,88.4226701 193.762922,86.4024315 C193.762922,84.3821929 192.750972,82.7573429 190.867057,82.7573429 C188.981455,82.7573429 187.969505,84.3821929 187.969505,86.4024315 M197.274391,82.0400166 L198.352119,82.0400166 L198.352119,86.3517234 C198.352119,87.9265391 198.814243,89.8428345 200.527813,89.8428345 C200.802726,89.8428345 201.092819,89.8091414 201.315448,89.7400705 L201.315448,90.8681157 C201.128237,90.9193292 200.819592,90.9700373 200.563231,90.9700373 C199.446712,90.9700373 198.711361,90.065209 198.316701,89.0906359 L198.284655,89.0906359 L198.284655,90.7646779 L197.205241,90.7646779 C197.274391,90.1342799 197.274391,89.7756168 197.274391,88.8162056 L197.274391,82.0400166 Z M207.476541,90.7646779 L205.489744,90.7646779 L205.489744,93.2463436 L204.41033,92.8698231 L204.41033,90.7646779 L202.698447,90.7646779 L202.698447,89.8428345 L204.41033,89.8428345 L204.41033,84.7420352 C204.41033,83.1502045 204.47948,81.8334779 206.397127,81.8334779 C206.928401,81.8334779 207.459675,81.9709458 207.716036,82.0735413 L207.648573,82.9613546 C207.339928,82.8422495 207.066701,82.7573429 206.653488,82.7573429 C205.779837,82.7573429 205.489744,83.4069459 205.489744,84.1938484 L205.489744,89.8428345 L207.476541,89.8428345 L207.476541,90.7646779 Z M215.413608,83.4069459 C214.900886,83.0824813 213.752322,82.7573429 212.964687,82.7573429 C211.077399,82.7573429 210.085687,84.2459043 210.085687,86.0956558 L216.062943,86.0956558 L216.062943,86.6413156 C216.062943,88.9866927 215.052678,90.9700373 212.586892,90.9700373 C210.37578,90.9700373 208.903391,89.0721047 208.903391,86.4024315 C208.903391,83.7839718 209.981119,81.8334779 212.878671,81.8334779 C213.683172,81.8334779 214.659704,82.0044704 215.413608,82.3130993 L215.413608,83.4069459 Z M210.085687,87.0163199 C210.085687,88.454847 211.060533,90.0486994 212.656042,90.0486994 C214.265044,90.0486994 214.882333,88.5417752 214.882333,87.0163199 L210.085687,87.0163199 Z M225.374576,94.8730467 L224.295161,94.8730467 L224.295161,89.2946477 L224.263116,89.2946477 C224.107951,89.7237294 223.251166,90.9700373 221.537596,90.9700373 C218.965554,90.9700373 217.940111,89.0550897 217.940111,86.4024315 C217.940111,83.8168226 219.137586,81.8334779 221.537596,81.8334779 C222.787355,81.8334779 223.679558,82.3130993 224.263116,83.4232871 L224.295161,83.4232871 L224.295161,82.0400166 L225.374576,82.0400166 L225.374576,94.8730467 Z M219.12072,86.4024315 C219.12072,88.0975316 219.651994,90.0486994 221.707941,90.0486994 C223.627274,90.0486994 224.295161,87.9949361 224.295161,86.4024315 C224.295161,84.8111061 223.627274,82.7573429 221.707941,82.7573429 C219.651994,82.7573429 219.12072,84.7085106 219.12072,86.4024315 M238.131901,90.7646779 L237.052487,90.7646779 L237.052487,85.9398252 C237.052487,84.4834407 236.435197,82.7573429 234.465266,82.7573429 C232.974325,82.7573429 232.390767,83.8168226 232.390767,85.4600353 L232.390767,90.7646779 L231.314726,90.7646779 L231.314726,85.1862788 C231.314726,83.2693096 232.134406,81.8334779 234.294921,81.8334779 C236.109686,81.8334779 236.760707,82.8067033 237.121637,83.5944481 L237.155368,83.5944481 L237.155368,82.0400166 L238.199364,82.0400166 C238.131901,82.7415071 238.131901,83.4253087 238.131901,84.0926006 L238.131901,90.7646779 Z M240.255311,82.2440284 C241.024393,81.9353996 241.864312,81.8334779 242.704231,81.8334779 C244.024827,81.8334779 245.753576,82.4658975 245.753576,84.3124482 C245.753576,87.1716451 241.452786,86.9669595 241.452786,88.5924834 C241.452786,89.7072198 242.225241,90.0486994 243.338387,90.0486994 C243.938811,90.0486994 244.70958,89.894048 245.272899,89.6381489 L245.375781,90.5785235 C244.608385,90.8681157 243.68245,90.9700373 243.21864,90.9700373 C241.778296,90.9700373 240.375058,90.321782 240.375058,88.5924834 C240.375058,86.0607834 244.572967,86.385248 244.572967,84.3124482 C244.572967,83.3213654 243.663898,82.7573429 242.635081,82.7573429 C241.795162,82.7573429 241.007527,82.9778642 240.358192,83.3048558 L240.255311,82.2440284 Z M247.897225,82.0400166 L248.973266,82.0400166 L248.973266,90.7646779 L247.897225,90.7646779 L247.897225,82.0400166 Z M248.973266,94.5295455 L247.897225,94.5295455 L247.897225,93.0937138 L248.973266,93.0937138 L248.973266,94.5295455 Z M251.860698,82.0400166 L252.936739,82.0400166 L252.936739,86.8663856 C252.936739,88.3194007 253.555716,90.0486994 255.527333,90.0486994 C257.018274,90.0486994 257.600146,88.9878719 257.600146,87.3448277 L257.600146,82.0400166 L258.677873,82.0400166 L258.677873,87.6179103 C258.677873,89.5348795 257.856506,90.9700373 255.697678,90.9700373 C253.87954,90.9700373 253.230205,89.996812 252.867589,89.209741 L252.835544,89.209741 L252.835544,90.7646779 L251.793235,90.7646779 C251.860698,90.0631874 251.860698,89.3788804 251.860698,88.7122623 L251.860698,82.0400166 Z M262.268611,86.4024315 C262.268611,88.0975316 262.801572,90.0486994 264.855832,90.0486994 C266.829136,90.0486994 267.444739,88.5082506 267.444739,86.4024315 C267.444739,84.8111061 266.74312,82.9613546 264.788369,82.9613546 C262.955051,82.9613546 262.268611,84.689474 262.268611,86.4024315 M268.522467,90.7646779 L267.444739,90.7646779 L267.444739,89.7735952 L267.411008,89.7735952 C266.60482,90.8180814 265.850917,90.9700373 264.685487,90.9700373 C262.113446,90.9700373 261.088002,89.0550897 261.088002,86.4024315 C261.088002,84.466931 261.978519,82.0400166 264.771503,82.0400166 C265.886335,82.0400166 266.844315,82.4842602 267.427873,83.7484256 L267.461605,83.7484256 C267.461605,81.2866388 267.22211,79.2643786 264.445992,79.2643786 C263.503191,79.2643786 262.543525,79.5393143 261.873951,79.882984 L261.789621,78.8036254 C262.236566,78.6681791 263.278876,78.3423668 264.42744,78.3423668 C267.427873,78.3423668 268.522467,80.3263853 268.522467,82.7573429 L268.522467,90.7646779 Z M274.361422,78.4449623 L275.435777,78.4449623 L275.435777,83.5253772 L275.471195,83.5253772 C276.004156,82.3986798 276.825522,81.8334779 278.196715,81.8334779 C280.596725,81.8334779 281.792514,83.8168226 281.792514,86.4024315 C281.792514,89.0550897 280.76707,90.9700373 278.196715,90.9700373 C276.344846,90.9700373 275.675272,89.6551639 275.402045,89.1762164 L275.368313,89.1762164 L275.435777,90.7646779 L274.361422,90.7646779 L274.361422,78.4449623 Z M280.613591,86.4024315 C280.613591,84.7085106 280.082317,82.7573429 278.024684,82.7573429 C276.105351,82.7573429 275.435777,84.8111061 275.435777,86.4024315 C275.435777,87.9949361 276.105351,90.0486994 278.024684,90.0486994 C280.082317,90.0486994 280.613591,88.0975316 280.613591,86.4024315 M291.045116,90.7646779 L289.967389,90.7646779 L289.967389,85.9398252 C289.967389,84.4834407 289.351785,82.7573429 287.380168,82.7573429 C285.887541,82.7573429 285.305669,83.8168226 285.305669,85.4600353 L285.305669,90.7646779 L284.227942,90.7646779 L284.227942,85.1862788 C284.227942,83.2693096 285.049308,81.8334779 287.208136,81.8334779 C289.024588,81.8334779 289.675609,82.8067033 290.036539,83.5944481 L290.07027,83.5944481 L290.07027,82.0400166 L291.114266,82.0400166 C291.045116,82.7415071 291.045116,83.4253087 291.045116,84.0926006 L291.045116,90.7646779 Z M293.881951,82.0400166 L294.959679,82.0400166 L294.959679,83.4232871 L294.99341,83.4232871 C295.578655,82.3130993 296.467485,81.8334779 297.718931,81.8334779 C300.118941,81.8334779 301.316416,83.8168226 301.316416,86.4024315 C301.316416,89.0550897 300.289286,90.9700373 297.718931,90.9700373 C296.003674,90.9700373 295.148576,89.7237294 294.99341,89.2946477 L294.959679,89.2946477 L294.959679,94.8730467 L293.881951,94.8730467 L293.881951,82.0400166 Z M300.13412,86.4024315 C300.13412,84.7085106 299.604532,82.7573429 297.546899,82.7573429 C295.627566,82.7573429 294.959679,84.8111061 294.959679,86.4024315 C294.959679,87.9949361 295.578655,90.0486994 297.546899,90.0486994 C299.604532,90.0486994 300.13412,88.0975316 300.13412,86.4024315 M303.785575,82.0400166 L304.864989,82.0400166 L304.864989,94.8730467 L303.785575,94.8730467 L303.785575,82.0400166 Z M307.747362,82.0400166 L308.823403,82.0400166 L308.823403,90.7646779 L307.747362,90.7646779 L307.747362,82.0400166 Z M308.82509,94.5295455 L307.747362,94.5295455 L307.747362,93.0937138 L308.82509,93.0937138 L308.82509,94.5295455 Z M317.593643,90.6299054 C317.283311,90.732501 316.531094,90.9700373 315.483725,90.9700373 C312.899878,90.9700373 311.169442,89.0906359 311.169442,86.4024315 C311.169442,83.9714739 312.537262,81.8334779 315.348799,81.8334779 C316.168479,81.8334779 316.854919,81.8860392 317.593643,82.1421068 L317.489074,83.1502045 C316.839739,82.9106465 316.203897,82.7573429 315.519144,82.7573429 C313.547526,82.7573429 312.348365,84.4163914 312.348365,86.4024315 C312.348365,88.5240863 313.532347,90.0486994 315.637205,90.0486994 C316.220763,90.0486994 316.924069,89.8611972 317.50594,89.6026027 L317.593643,90.6299054 Z M323.498375,82.0400166 L324.574416,82.0400166 L324.574416,89.8428345 L326.544347,89.8428345 L326.544347,90.7646779 L324.574416,90.7646779 L324.574416,91.5195719 C324.574416,92.5632158 324.420937,94.1563943 325.896698,94.1563943 C326.203656,94.1563943 326.529167,94.0873235 326.751796,93.9661968 L326.820946,94.9065713 C326.61181,95.0276981 326.151372,95.0770585 325.808996,95.0770585 C323.565838,95.0770585 323.498375,93.2311817 323.498375,91.399119 L323.498375,90.7646779 L321.732521,90.7646779 L321.732521,89.8428345 L323.498375,89.8428345 L323.498375,82.0400166 Z M335.437707,90.7646779 L334.358292,90.7646779 L334.358292,85.9398252 C334.358292,84.4834407 333.744376,82.7573429 331.771072,82.7573429 C330.280131,82.7573429 329.699946,83.8168226 329.699946,85.4600353 L329.699946,90.7646779 L328.620532,90.7646779 L328.620532,85.1862788 C328.620532,83.2693096 329.441899,81.8334779 331.600727,81.8334779 C333.418865,81.8334779 334.0682,82.8067033 334.427442,83.5944481 L334.462861,83.5944481 L334.462861,82.0400166 L335.506857,82.0400166 C335.437707,82.7415071 335.437707,83.4253087 335.437707,84.0926006 L335.437707,90.7646779 Z M338.340318,82.0400166 L339.416359,82.0400166 L339.416359,86.8663856 C339.416359,88.3194007 340.033649,90.0486994 342.005267,90.0486994 C343.496207,90.0486994 344.078079,88.9878719 344.078079,87.3448277 L344.078079,82.0400166 L345.157493,82.0400166 L345.157493,87.6179103 C345.157493,89.5348795 344.33444,90.9700373 342.177298,90.9700373 C340.360847,90.9700373 339.708138,89.996812 339.348896,89.209741 L339.315164,89.209741 L339.315164,90.7646779 L338.271168,90.7646779 C338.340318,90.0631874 338.340318,89.3788804 338.340318,88.7122623 L338.340318,82.0400166 Z M355.024012,94.8730467 L353.949658,94.8730467 L353.949658,89.2946477 L353.91424,89.2946477 C353.759074,89.7237294 352.902289,90.9700373 351.188719,90.9700373 C348.616678,90.9700373 347.592921,89.0550897 347.592921,86.4024315 C347.592921,83.8168226 348.790396,81.8334779 351.188719,81.8334779 C352.440165,81.8334779 353.330681,82.3130993 353.91424,83.4232871 L353.949658,83.4232871 L353.949658,82.0400166 L355.024012,82.0400166 L355.024012,94.8730467 Z M348.771844,86.4024315 C348.771844,88.0975316 349.303118,90.0486994 351.359064,90.0486994 C353.278397,90.0486994 353.949658,87.9949361 353.949658,86.4024315 C353.949658,84.8111061 353.278397,82.7573429 351.359064,82.7573429 C349.303118,82.7573429 348.771844,84.7085106 348.771844,86.4024315 M357.854101,82.0400166 L358.930142,82.0400166 L358.930142,90.7646779 L357.854101,90.7646779 L357.854101,82.0400166 Z M358.931829,94.5295455 L357.854101,94.5295455 L357.854101,93.0937138 L358.931829,93.0937138 L358.931829,94.5295455 Z M361.817575,82.0400166 L362.896989,82.0400166 L362.896989,86.8663856 C362.896989,88.3194007 363.510905,90.0486994 365.484209,90.0486994 C366.973463,90.0486994 367.560395,88.9878719 367.560395,87.3448277 L367.560395,82.0400166 L368.634749,82.0400166 L368.634749,87.6179103 C368.634749,89.5348795 367.815069,90.9700373 365.656241,90.9700373 C363.838103,90.9700373 363.187081,89.996812 362.827839,89.209741 L362.794107,89.209741 L362.794107,90.7646779 L361.750111,90.7646779 C361.817575,90.0631874 361.817575,89.3788804 361.817575,88.7122623 L361.817575,82.0400166 Z M372.225488,86.4024315 C372.225488,88.0975316 372.760135,90.0486994 374.816081,90.0486994 C376.786012,90.0486994 377.401615,88.5082506 377.401615,86.4024315 C377.401615,84.8111061 376.699996,82.9613546 374.746931,82.9613546 C372.911927,82.9613546 372.225488,84.689474 372.225488,86.4024315 M378.477656,90.7646779 L377.401615,90.7646779 L377.401615,89.7735952 L377.367884,89.7735952 C376.561696,90.8180814 375.806106,90.9700373 374.640677,90.9700373 C372.075382,90.9700373 371.046565,89.0550897 371.046565,86.4024315 C371.046565,84.466931 371.937082,82.0400166 374.726692,82.0400166 C375.839838,82.0400166 376.801191,82.4842602 377.38475,83.7484256 L377.418481,83.7484256 C377.418481,81.2866388 377.1773,79.2643786 374.402868,79.2643786 C373.458381,79.2643786 372.502087,79.5393143 371.8342,79.882984 L371.748184,78.8036254 C372.193442,78.6681791 373.240811,78.3423668 374.387689,78.3423668 C377.38475,78.3423668 378.477656,80.3263853 378.477656,82.7573429 L378.477656,90.7646779 Z M384.314925,82.0400166 L385.392653,82.0400166 L385.392653,83.4232871 L385.429758,83.4232871 C386.011629,82.3130993 386.902146,81.8334779 388.153592,81.8334779 C390.555288,81.8334779 391.751076,83.8168226 391.751076,86.4024315 C391.751076,89.0550897 390.72226,90.9700373 388.153592,90.9700373 C386.440022,90.9700373 385.579864,89.7237294 385.429758,89.2946477 L385.392653,89.2946477 L385.392653,94.8730467 L384.314925,94.8730467 L384.314925,82.0400166 Z M390.570467,86.4024315 C390.570467,84.7085106 390.04088,82.7573429 387.98156,82.7573429 C386.062227,82.7573429 385.392653,84.8111061 385.392653,86.4024315 C385.392653,87.9949361 386.011629,90.0486994 387.98156,90.0486994 C390.04088,90.0486994 390.570467,88.0975316 390.570467,86.4024315 M394.085309,90.7646779 L392.903013,90.7646779 L395.999583,81.9347257 L395.77864,81.1634905 C395.436263,80.0356138 395.129305,79.2643786 394.201684,79.2643786 C393.808709,79.2643786 393.601259,79.3334495 393.400556,79.4018465 L393.295988,78.4798346 C393.653544,78.3950965 394.066757,78.3423668 394.461418,78.3423668 C395.677445,78.3423668 396.293048,79.5393143 396.704575,80.7371043 L400.195805,90.7646779 L399.065793,90.7646779 L396.549409,83.492358 L396.53423,83.492358 L394.085309,90.7646779" id="path48"></path>
                        <path d="M7.42097178,47.521093 L7.51322795,44.7387164 L2.3993351,46.0436504 L2.39208279,46.0712787 L7.42097178,47.521093 Z M12.1513353,48.9892701 L12.0498029,51.9116416 L0,47.5935332 L0.121096767,44.4348046 L12.4399099,40.8087526 L12.3370283,43.5739457 L9.59379858,44.3360838 L9.45465536,48.1324544 L12.1513353,48.9892701" id="path50"></path>
                        <path d="M3.9113581,61.0148449 L4.18222357,61.8504339 C4.6537926,63.301596 5.68564499,63.1349836 6.16463499,62.9830277 C7.0011809,62.7192106 7.52368477,61.9407314 7.18839178,60.8937182 L6.89981717,60.0534121 L3.9113581,61.0148449 Z M12.7001499,55.2711812 L13.5842575,57.9988066 L8.89993772,59.5156702 C9.21684695,60.5099537 9.33878701,60.87266 11.0682107,60.8081377 L14.4656666,60.7008252 L15.3887342,63.5542943 L11.219666,63.5844496 C9.68791,63.5970845 9.12391614,63.4166579 8.7478078,62.6145936 L8.71222087,62.6218376 C8.99286853,65.0059617 7.10001475,65.6843724 6.61984414,65.84492 C4.47265342,66.5366395 3.11613351,65.1909369 2.49428981,63.2732938 L1.10015907,59.0412712 L12.7001499,55.2711812" id="path52"></path>
                        <polyline id="path54" points="17.755181 67.2841211 19.402974 69.6262973 11.2237138 75.3514298 12.7382667 77.5111579 10.9358139 78.7701007 6.24491641 72.0901056 8.04753792 70.8284673 9.57389689 73.0041996 17.755181 67.2841211"></polyline>
                        <path d="M20.1216277,87.0715766 C19.1749478,86.5682016 18.5075663,86.2713653 17.6597203,85.5508382 C14.5336359,82.9344001 16.4138403,80.4613262 16.6615996,80.1823473 C19.4476685,76.8433605 22.3867106,80.8134191 23.9080098,79.0169027 C24.5443582,78.2547647 24.1682498,77.3415131 23.4725337,76.760307 C22.6515044,76.0667344 21.8174884,75.9095561 20.9340554,75.6199638 L22.3438714,73.6964244 C22.845293,73.9135765 24.0581159,74.4696812 25.1879588,75.4205007 C27.0518033,76.9821761 27.5584533,79.2234415 26.0695365,80.9904764 C23.2905513,84.301161 20.2764561,80.4291493 18.8428593,82.1282926 C18.2652041,82.8211913 18.5254441,83.5944481 19.2402186,84.1834036 C19.8264754,84.68223 20.7463386,85.0816618 21.4842193,85.2528227 L20.1216277,87.0715766" id="path56"></path>
                        <path d="M42.1802976,95.7805705 C41.6810686,95.8706996 40.694754,96.0516315 38.9204671,95.6356901 C36.5079766,95.0763846 33.9787745,92.675077 34.989376,88.3259709 C35.8616775,84.5644726 38.6991872,82.6631706 41.9510908,83.4128422 C43.4651377,83.7649352 44.3855068,84.2656147 44.8228382,84.525557 L44.1463492,86.9873438 C43.9038183,86.7998417 43.2246307,86.1042475 41.864063,85.7930917 C40.0912941,85.381025 38.3895303,86.6406417 37.8552203,88.9471033 C37.2932504,91.3379661 38.1397471,93.1358302 39.9976886,93.566765 C41.2816854,93.8622535 42.1072685,93.5799053 42.5876078,93.4456383 L42.1802976,95.7805705" id="path58"></path>
                        <path d="M51.5165547,90.319255 C51.811707,92.6329606 52.6160392,94.4557576 54.2538814,94.2578106 C55.9055536,94.053125 56.2620975,92.0967348 55.9767274,89.7789861 C55.6881528,87.457868 54.8672922,85.6391142 53.2274261,85.8456529 C51.5784524,86.0437684 51.2352324,88.0001586 51.5165547,90.319255 M48.604498,90.6831406 C48.172395,87.1288548 49.4880996,84.2282154 52.9725831,83.8003129 C56.4543682,83.3693781 58.4467304,85.8608148 58.8847364,89.4151005 C59.3256096,92.96787 57.998099,95.8745743 54.5029899,96.293885 C51.025084,96.7347592 49.0446965,94.2347308 48.604498,90.6831406" id="path60"></path>
                        <path d="M62.9628977,86.4273644 C61.5991255,83.7425293 62.4095294,81.5332723 64.8471499,80.2824158 C67.301299,79.0438572 69.5650327,79.6814993 70.9326841,82.3750946 L74.4640547,89.2880775 L71.9196734,90.5877891 L68.1656736,83.2738582 C67.6195575,82.18018 66.8769544,81.7202691 65.8591006,82.2408276 C64.825393,82.7652607 64.7601222,83.6404392 65.3220921,84.733612 L69.0452274,92.0499014 L66.5106282,93.3469175 L62.9628977,86.4273644" id="path62"></path>
                        <polyline id="path64" points="71.8333202 76.4702094 73.5652738 74.6630796 79.9321303 80.7778729 79.9565858 80.7509184 76.0384813 72.120261 78.4003743 69.6861026 87.1647106 78.1376812 85.4010492 79.9507072 79.3392959 74.0813682 79.3148404 74.1083227 82.9205894 82.5152579 80.6062581 84.9349283 71.8333202 76.4702094"></polyline>
                        <path d="M94.3584994,64.5827763 C94.3301648,65.100134 94.2880002,66.1082317 93.4796203,67.7349348 C92.3924479,69.9618806 89.4751627,71.8801976 85.4551886,69.9197642 C81.9804872,68.2337612 80.7708688,65.0453827 82.223524,62.0440008 C82.9101326,60.6507909 83.6077039,59.8605191 83.9661031,59.4919165 L86.2001529,60.698972 C85.9702715,60.889675 85.1539646,61.4029895 84.5452762,62.6671548 C83.7421247,64.2872878 84.5828871,66.2404771 86.69837,67.2802463 C88.9179152,68.3587627 90.8522589,67.9251324 91.6955512,66.2108272 C92.2745556,65.0374648 92.1856726,64.1740789 92.1532902,63.6740733 L94.3584994,64.5827763" id="path66"></path>
                        <polyline id="path68" points="84.5466255 55.372429 85.0466978 52.5619186 97.0378076 54.6690854 96.543807 57.4730256 84.5466255 55.372429"></polyline>
                        <polyline id="path70" points="85.3865446 48.1639575 84.9161562 41.3023565 87.1166429 41.1325433 87.3927368 45.1487615 97.3567407 44.4524935 97.5564323 47.3335909 85.3865446 48.1639575"></polyline>
                        <polyline id="path72" points="10.9192853 19.7439914 14.368182 15.6521322 15.1396257 16.3286898 12.3850959 19.567608 16.0810772 22.6737754 18.5880164 19.6696981 19.3567616 20.3408648 16.8552195 23.3403935 20.1796462 26.1352366 22.8024537 22.9830781 23.582499 23.6496962 20.2580723 27.6013921 10.9192853 19.7439914"></polyline>
                        <polyline id="path74" points="19.5775355 10.6989087 20.4181292 10.1493742 26.4306343 19.0728247 26.4596435 19.0531143 24.692609 7.28343863 25.8455581 6.48070039 32.6603714 16.5984031 31.8197777 17.1511385 25.7598796 8.15996478 25.7308704 8.17984371 27.5459726 20.0138732 26.3916742 20.8166114 19.5775355 10.6989087"></polyline>
                        <path d="M38.449404,7.56309141 L40.5426241,6.95897403 L39.373821,2.85464837 C38.7617595,2.72627764 38.2637111,2.80006554 37.6602512,2.95134758 C34.5657059,3.81355416 34.4102028,6.98862396 35.0249629,9.12611458 C36.0902097,12.811298 38.7017171,13.4627542 40.3699178,12.9672971 C41.2653255,12.7073548 42.2772762,12.0412421 42.6237007,11.5412364 L43.0117838,12.6579944 C42.713427,12.9474181 41.65324,13.6681137 40.7058854,13.9477665 C37.424298,14.8775277 34.8114413,12.5414162 33.948416,9.55182697 C33.3139229,7.32302803 33.2118846,3.16732039 37.3209104,1.98604011 C38.2886725,1.70773506 39.2334972,1.61878526 40.2118848,1.84907763 L41.864063,7.63553159 L38.7281965,8.51407932 L38.449404,7.56309141" id="path76"></path>
                        <polyline id="path78" points="47.2967203 0.737036685 52.3439931 0.737036685 52.3419692 1.73266795 48.3766404 1.73266795 48.3766404 12.8980577 47.2967203 12.8980577 47.2967203 0.737036685"></polyline>
                        <path d="M58.6799851,13.143512 L58.7108496,13.1482291 L62.5446248,7.34728707 L58.4954727,6.14629632 L58.6799851,13.143512 Z M57.3017082,1.2666923 L58.3327173,1.56942486 L58.4678127,5.12825914 L63.1440369,6.43588856 L65.0890061,3.50610457 L66.1925384,3.81877659 L58.934828,14.4413704 L57.8312957,14.1142104 L57.3017082,1.2666923" id="path80"></path>
                        <polyline id="path82" points="71.4023979 6.43588856 72.2504126 7.00833443 66.4033614 16.019387 66.4310214 16.0338751 76.5872959 9.81699171 77.7508706 10.5376872 71.1165218 20.7869615 70.2593996 20.2092932 76.1538437 11.139783 76.1175822 11.1246211 65.9513568 17.4058583 64.7707477 16.6806142 71.4023979 6.43588856"></polyline>
                        <path d="M75.6662521,23.9918497 L76.2315953,24.6874439 C78.7331374,27.9336061 81.4264442,26.2339574 82.9396478,25.0230272 C85.3411754,23.1540706 86.0158092,20.7377696 84.3496324,18.6068491 L83.660494,17.7053901 L75.6662521,23.9918497 Z M83.7981193,16.2641675 L84.9616939,17.7203835 C87.3696306,20.8363219 86.2898792,23.8845372 83.4963893,26.0659973 C80.3986396,28.4930801 77.6613129,28.1982655 75.1736008,24.9985997 L74.1832384,23.7615573 L83.7981193,16.2641675" id="path84"></path>
                        <polyline id="path86" points="123.697817 0.467154909 122.436083 0.467154909 122.436083 96.4714476 123.697817 96.4714476 123.697817 0.467154909"></polyline>
                    </g>
                </g>
            </g>
        </g>
    </g>
</svg>