<?xml version="1.0" encoding="UTF-8"?>
<svg width="301px" height="202px" viewBox="0 0 301 202" version="1.1" xmlns="http://www.w3.org/2000/svg" xmlns:xlink="http://www.w3.org/1999/xlink">
    <title>BHCC_logo_White</title>
    <g id="Page-2" stroke="none" stroke-width="1" fill="none" fill-rule="evenodd">
        <g id="Artboard" fill="#FFFFFF" fill-rule="nonzero">
            <g id="BHCC_logo_White" transform="translate(0.000000, 0.000000)">
                <path d="M74.733565,64.7188365 C75.0566207,65.2572628 75.2719913,65.9033743 75.4873618,66.5494858 C76.456529,70.1030991 77.4256963,71.9337484 79.0409751,75.0566207 C83.3483852,83.1330147 97.5628384,79.7947718 97.9935795,94.0092251 C98.20895,99.6088582 96.1629302,102.624045 92.3939463,105.531547 L92.9323726,106.393029 L92.2862611,107.362196 L51.7966063,107.362196 L51.0428095,106.285344 L51.5812358,105.531547 C47.812252,102.624045 45.7662322,99.6088582 45.9816027,94.0092251 C46.4123437,79.7947718 60.7344822,83.1330147 64.934207,75.0566207 C66.5494858,71.9337484 67.5186531,70.1030991 68.4878204,66.5494858 C68.9185614,64.8265218 69.7800434,63.3189283 71.9337484,63.4266135 C73.3336567,63.3189283 74.1951387,63.9650398 74.733565,64.7188365 Z M150.113241,20.3525127 C148.497963,19.9217716 146.990369,18.6295486 146.990369,17.2296403 C147.098054,14.96825 148.497963,11.3069515 150.113241,11.6300072 C151.620835,11.522322 153.343799,15.0759353 153.451484,17.3373256 C153.451484,18.7372339 151.836206,19.9217716 150.113241,20.3525127 Z M150.220927,0 C150.328612,0.430741009 150.543983,0.646111513 150.651668,1.18453777 C150.759353,1.50759353 150.974724,1.72296403 150.974724,2.15370504 C150.867038,2.58444605 150.651668,3.01518706 150.220927,3.12287231 C149.790186,3.01518706 149.46713,2.6921313 149.46713,2.15370504 C149.46713,1.83064929 149.6825,1.61527878 149.790186,1.18453777 C149.897871,0.753796765 150.005556,0.430741009 150.220927,0 Z M150.113241,27.9981656 C149.359445,27.9981656 148.821018,27.352054 148.713333,26.921313 C148.605648,26.7059425 148.390277,26.7059425 148.174907,26.7059425 L148.174907,26.3828868 L148.821018,26.3828868 C148.928704,25.62909 149.574815,25.198349 150.220927,25.198349 C150.974724,25.198349 151.51315,25.62909 151.620835,26.3828868 L152.266947,26.3828868 L152.266947,26.7059425 C151.943891,26.7059425 151.72852,26.8136278 151.72852,26.921313 C151.51315,27.352054 150.867038,28.1058508 150.113241,27.9981656 Z M150.113241,24.8752932 C149.144074,24.8752932 148.713333,24.0138112 148.390277,23.1523292 C148.282592,22.8292735 147.20574,22.9369587 146.667313,22.9369587 L146.667313,22.1831619 L148.174907,22.1831619 C148.497963,21.3216799 149.251759,20.7832537 150.220927,20.8909389 C151.190094,20.8909389 151.836206,21.4293652 152.159261,22.2908472 L153.77454,22.2908472 L153.77454,22.9369587 C153.236114,22.9369587 152.159261,22.7215882 152.051576,23.1523292 C151.72852,24.0138112 151.082409,24.8752932 150.113241,24.8752932 Z M131.806749,73.1182862 C132.23749,74.4105092 135.252677,76.7795848 135.144991,80.5485686 C135.037306,84.1021819 132.345175,86.4712575 131.591378,87.7634805 C130.729896,86.4712575 128.253135,84.3175524 128.14545,80.7639391 C128.037765,76.9949553 131.483693,74.4105092 131.806749,73.1182862 Z M176.711499,73.2259715 C176.496128,74.5181945 173.157885,76.7795848 173.157885,80.4408834 C173.265571,83.8868114 175.957702,86.1482017 176.496128,87.4404247 C177.034555,86.1482017 179.619001,83.5637557 179.619001,80.2255128 C179.834371,76.6718995 176.926869,74.5181945 176.711499,73.2259715 Z M183.603355,73.5490272 C183.387984,74.733565 180.911224,76.88727 180.911224,80.5485686 C181.018909,83.7791262 182.849558,86.1482017 183.387984,87.3327395 C183.926411,86.1482017 185.864745,83.7791262 185.864745,80.5485686 C185.97243,76.9949553 183.818725,74.8412502 183.603355,73.5490272 Z M140.206198,74.4105092 C138.698605,76.1334733 137.083326,77.8564373 137.191011,80.3331981 C137.191011,83.0253294 138.698605,84.8559787 140.206198,86.7943132 C141.821477,84.8559787 143.652126,83.0253294 143.759812,80.3331981 C143.759812,77.4256963 142.036848,75.9181028 140.636939,73.872083 C140.421569,74.0874535 140.313884,74.1951387 140.206198,74.4105092 Z M168.52742,73.1182862 C168.096679,74.4105092 164.112324,76.9949553 164.22001,80.7639391 C164.327695,84.3175524 167.558252,86.4712575 168.312049,87.7634805 C169.173531,86.4712575 171.865662,84.3175524 171.973348,80.7639391 C171.973348,76.9949553 168.850475,74.4105092 168.52742,73.1182862 Z M158.835747,73.010601 C158.405006,74.302824 154.636022,76.5642143 154.636022,80.3331981 C154.743707,83.7791262 157.758894,86.255887 158.620376,87.54811 C159.481858,86.255887 162.820101,83.9944967 162.927786,80.5485686 C163.035472,76.7795848 159.158803,74.302824 158.835747,73.010601 Z M149.359445,72.5798599 C148.928704,73.872083 144.836664,76.2411585 144.944349,80.0101423 C145.052035,83.5637557 148.174907,86.0405165 149.144074,87.3327395 C150.113241,86.0405165 153.236114,83.5637557 153.343799,80.0101423 C153.343799,76.3488438 149.6825,73.9797682 149.359445,72.5798599 Z M123.514984,73.2259715 C123.730355,74.5181945 126.960912,76.88727 126.853227,80.5485686 C126.745542,83.9944967 124.161096,86.1482017 123.622669,87.4404247 C123.084243,86.1482017 120.822853,83.5637557 120.715168,80.2255128 C120.715168,76.6718995 123.299614,74.5181945 123.514984,73.2259715 Z M150.543983,5.1688921 C150.651668,5.92268887 150.974724,6.35342988 151.51315,6.89185614 C151.836206,7.10722664 151.943891,7.21491189 152.374632,7.32259715 L153.020743,7.32259715 L153.128429,7.75333815 C152.697688,7.86102341 152.374632,8.07639391 152.266947,8.29176442 C151.836206,9.26093168 151.620835,11.091581 150.328612,11.091581 C149.036389,11.091581 148.821018,9.26093168 148.390277,8.29176442 C148.282592,8.07639391 147.959536,7.86102341 147.528795,7.75333815 L147.636481,7.32259715 L148.282592,7.32259715 C148.605648,7.21491189 148.821018,7.10722664 149.144074,6.89185614 C149.790186,6.35342988 150.005556,5.92268887 150.113241,5.1688921 C149.790186,5.06120685 149.46713,4.73815109 149.46713,4.52278059 C149.46713,4.41509534 149.251759,4.41509534 149.036389,4.30741009 L149.036389,4.09203958 L149.46713,4.09203958 C149.574815,3.66129857 150.005556,3.33824282 150.436297,3.33824282 C150.867038,3.33824282 151.297779,3.66129857 151.405465,4.09203958 L151.836206,4.09203958 L151.836206,4.30741009 C151.620835,4.30741009 151.51315,4.30741009 151.405465,4.52278059 C151.082409,4.84583635 150.867038,5.06120685 150.543983,5.1688921 Z M150.113241,107.254511 L116.084702,107.254511 L115.115535,106.285344 L115.977017,105.531547 L115.977017,98.5320057 L116.838499,98.5320057 C117.48461,98.5320057 117.915351,99.070432 117.915351,99.7165435 C117.915351,100.25497 117.48461,100.578026 117.053869,100.685711 L119.207574,104.454695 L119.207574,100.039599 L120.284427,100.039599 L120.284427,99.8242287 C116.192387,93.9015399 113.069515,88.7326478 113.284885,80.5485686 C113.823312,64.6111513 121.038223,56.2117016 134.068139,49.535216 C135.468047,48.7814192 138.483234,47.4891962 139.560087,46.3046584 C143.867497,41.6741926 146.559628,39.4128023 146.990369,32.4132609 C147.098054,30.4749264 148.174907,28.5365918 150.220927,28.5365918 C152.159261,28.5365918 153.343799,30.4749264 153.451484,32.4132609 C153.882225,39.4128023 156.574357,41.6741926 160.881767,46.3046584 C161.958619,47.4891962 164.866121,48.7814192 166.373715,49.535216 C179.40363,56.2117016 186.618542,64.503466 187.156968,80.5485686 C187.372339,88.7326478 184.249466,93.9015399 180.157427,99.8242287 L180.157427,100.039599 L181.234279,100.039599 L181.234279,104.454695 L183.387984,100.685711 C182.957243,100.47034 182.526502,100.147284 182.526502,99.7165435 C182.526502,99.070432 182.957243,98.5320057 183.603355,98.5320057 L184.464837,98.5320057 L184.464837,105.531547 L185.326319,106.285344 L184.357152,107.254511 L150.113241,107.254511 Z M219.7856,105.423862 C219.354859,104.454695 218.708747,103.270157 218.278006,101.977934 C217.201154,98.7473762 216.662727,96.7013564 217.093468,93.3631136 C217.631895,88.9480183 220.431711,87.3327395 222.370046,83.3483852 C224.200695,79.5794013 225.708289,77.6410668 226.892826,73.5490272 C227.969679,70.1030991 228.292735,67.6263383 228.508105,64.3957808 C228.292735,64.3957808 227.861994,64.3957808 227.108197,65.1495775 C226.3544,65.9033743 225.062177,71.1799517 223.339213,74.5181945 C221.939305,77.1026405 220.862452,78.5025488 218.601062,80.4408834 C214.724393,83.6714409 209.986242,84.6406082 208.263278,87.54811 C206.755684,90.132556 206.217258,91.9632053 206.540314,94.8707071 C207.07874,98.7473762 209.232445,100.578026 212.247632,103.054786 C213.43217,104.023954 214.616708,104.77775 215.801245,105.423862 L219.7856,105.423862 L219.7856,105.423862 Z M230.984866,64.7188365 C231.307922,65.2572628 231.523292,65.9033743 231.738663,66.5494858 C232.70783,70.1030991 233.676997,71.9337484 235.292276,75.0566207 C239.599686,83.1330147 253.814139,79.7947718 254.352566,94.0092251 C254.567936,99.6088582 252.521916,102.624045 248.752932,105.531547 L249.291359,106.393029 L248.645247,107.362196 L208.263278,107.362196 L207.509481,106.285344 L208.047907,105.531547 C204.278923,102.624045 202.232904,99.6088582 202.448274,94.0092251 C202.879015,79.7947718 217.201154,83.1330147 221.508564,75.0566207 C223.123842,71.9337484 224.09301,70.1030991 225.062177,66.5494858 C225.492918,64.8265218 226.3544,63.3189283 228.508105,63.4266135 C229.692643,63.3189283 230.554125,63.9650398 230.984866,64.7188365 Z M51.9042915,109.192846 L248.429877,109.192846 C250.152841,109.192846 250.152841,111.777292 248.429877,111.777292 L51.9042915,111.777292 C50.1813275,111.777292 50.1813275,109.192846 51.9042915,109.192846 Z M108.331364,37.0437267 L108.331364,43.5048419 L108.977475,43.5048419 L108.977475,37.0437267 C108.977475,37.0437267 108.86979,36.720671 108.762105,36.720671 C108.546734,36.720671 108.331364,37.0437267 108.331364,37.0437267 Z M105.423862,37.0437267 L105.423862,43.5048419 L106.6084,43.5048419 L106.6084,37.0437267 C106.500714,36.8283562 106.285344,36.720671 105.962288,36.720671 C105.746918,36.720671 105.531547,36.8283562 105.423862,37.0437267 Z M104.239324,51.3658653 L103.270157,51.4735505 L103.270157,81.8407916 L104.239324,81.8407916 L104.239324,51.3658653 Z M102.624045,37.151412 L102.624045,43.5048419 L103.808583,43.5048419 L103.808583,37.151412 C103.700898,36.9360415 103.485527,36.8283562 103.162472,36.8283562 C102.947101,36.8283562 102.731731,36.9360415 102.624045,37.151412 Z M98.5320057,107.254511 L97.7782089,106.285344 L98.3166352,105.423862 L98.3166352,98.5320057 L98.9627467,98.5320057 C99.6088582,98.5320057 100.039599,98.9627467 100.039599,99.6088582 C100.039599,100.147284 99.7165435,100.578026 99.1781172,100.685711 L100.685711,104.023954 L100.685711,92.3939463 L101.654878,91.2094086 L101.654878,88.5172773 C101.654878,86.5789427 103.162472,85.6097755 103.054786,84.9636639 C102.947101,83.9944967 102.51636,83.3483852 102.085619,82.5945884 L102.085619,51.3658653 C102.51636,50.396698 103.054786,49.4275307 103.916268,48.7814192 L103.916268,47.7045667 C102.624045,47.3815109 101.870249,46.8430847 101.439508,45.7662322 C100.901081,44.6893796 100.039599,44.5816944 98.9627467,44.6893796 L98.9627467,43.6125271 L101.439508,43.6125271 L101.439508,36.720671 L99.1781172,36.720671 L99.1781172,35.5361332 L101.439508,35.5361332 L101.762563,34.7823364 L102.193304,34.7823364 C102.085619,34.3515954 101.977934,33.8131692 101.977934,33.2747429 C102.085619,31.5517789 103.485527,30.7979821 104.347009,29.6134443 C104.885436,28.9673328 105.100806,28.5365918 105.423862,27.8904803 C105.100806,27.7827951 104.77775,27.5674245 104.56238,27.1366835 C104.454695,27.1366835 104.239324,27.1366835 104.239324,27.1366835 L104.239324,26.490572 L104.670065,26.490572 C104.77775,26.059831 105.208491,25.8444605 105.639232,25.8444605 C106.069973,25.8444605 106.500714,26.059831 106.6084,26.490572 L107.039141,26.490572 L107.039141,27.1366835 C107.039141,27.1366835 106.716085,27.1366835 106.716085,27.1366835 C106.6084,27.5674245 106.285344,27.7827951 105.854603,27.8904803 C106.177659,28.5365918 106.393029,28.9673328 106.931455,29.6134443 C107.900623,30.9056674 109.192846,31.5517789 109.300531,33.2747429 C109.300531,33.8131692 109.192846,34.3515954 109.08516,34.7823364 L109.515901,34.7823364 L109.838957,35.5361332 L112.100347,35.5361332 L112.100347,36.720671 L109.838957,36.720671 L109.838957,43.6125271 L112.315718,43.6125271 L112.315718,44.9047501 C111.238865,44.6893796 110.269698,44.9047501 109.838957,45.9816027 C109.300531,47.1661404 108.546734,47.5968814 107.362196,47.9199372 L107.362196,48.9967897 C108.223678,49.6429012 108.86979,50.5043833 109.192846,51.5812358 L109.192846,82.8099589 C108.762105,83.5637557 108.223678,84.2098672 108.223678,85.1790344 C108.115993,85.825146 109.623587,86.7943132 109.623587,88.7326478 L109.623587,91.4247791 L110.592754,92.6093168 L110.592754,104.239324 L112.100347,100.901081 C111.561921,100.793396 111.238865,100.362655 111.238865,99.8242287 C111.238865,99.1781172 111.777292,98.7473762 112.315718,98.7473762 L112.96183,98.7473762 L112.96183,105.639232 L113.500256,106.500714 L112.746459,107.469882 L98.5320057,107.469882 L98.5320057,107.254511 Z M106.393029,23.906126 C106.500714,24.2291817 106.716085,24.336867 106.6084,24.767608 C106.500714,25.198349 106.285344,25.5214048 105.746918,25.62909 C105.100806,25.5214048 104.77775,24.767608 104.993121,24.2291817 C105.316177,23.6907555 105.531547,23.044644 105.746918,22.3985324 C105.962288,22.9369587 106.177659,23.3676997 106.393029,23.906126 Z M197.064011,37.0437267 L197.064011,43.5048419 L197.710123,43.5048419 L197.710123,37.0437267 C197.710123,37.0437267 197.602438,36.720671 197.494752,36.720671 C197.279382,36.720671 197.064011,37.0437267 197.064011,37.0437267 Z M194.15651,37.0437267 L194.15651,43.5048419 L195.341047,43.5048419 L195.341047,37.0437267 C195.233362,36.8283562 195.017992,36.720671 194.694936,36.720671 C194.479565,36.720671 194.264195,36.8283562 194.15651,37.0437267 Z M192.971972,51.3658653 L192.002805,51.4735505 L192.002805,81.8407916 L192.971972,81.8407916 L192.971972,51.3658653 Z M194.587251,99.8242287 C194.587251,99.2858025 195.017992,98.7473762 195.556418,98.639691 C195.556418,98.639691 195.664103,98.639691 195.664103,98.20895 C195.664103,97.8858942 195.556418,97.8858942 195.556418,97.8858942 L193.618083,97.8858942 C192.971972,97.8858942 192.32586,98.9627467 192.32586,99.8242287 C192.32586,100.25497 192.433546,100.685711 192.756601,100.901081 L190.925952,105.100806 L191.033637,105.316177 L193.187342,105.316177 L195.017992,101.008767 C195.017992,101.008767 195.125677,100.901081 195.017992,100.793396 C195.017992,100.685711 195.017992,100.578026 194.910306,100.578026 C194.802621,100.578026 194.587251,100.147284 194.587251,99.8242287 Z M191.356693,37.151412 L191.356693,43.5048419 L192.541231,43.5048419 L192.541231,37.151412 C192.433546,36.9360415 192.218175,36.8283562 191.895119,36.8283562 C191.679749,36.8283562 191.464378,36.9360415 191.356693,37.151412 Z M187.264653,107.254511 L186.510857,106.285344 L187.049283,105.423862 L187.049283,98.5320057 L187.695394,98.5320057 C188.341506,98.5320057 188.772247,98.9627467 188.772247,99.6088582 C188.772247,100.147284 188.449191,100.578026 187.910765,100.685711 L189.418359,104.023954 L189.418359,92.3939463 L190.387526,91.2094086 L190.387526,88.5172773 C190.387526,86.5789427 191.895119,85.6097755 191.787434,84.9636639 C191.679749,83.9944967 191.249008,83.3483852 190.818267,82.5945884 L190.818267,51.3658653 C191.249008,50.396698 191.787434,49.4275307 192.648916,48.7814192 L192.648916,47.7045667 C191.356693,47.3815109 190.602896,46.8430847 190.172155,45.7662322 C189.633729,44.6893796 188.772247,44.5816944 187.695394,44.6893796 L187.695394,43.6125271 L190.172155,43.6125271 L190.172155,36.720671 L187.910765,36.720671 L187.910765,35.5361332 L190.172155,35.5361332 L190.495211,34.7823364 L190.925952,34.7823364 C190.818267,34.3515954 190.710582,33.8131692 190.710582,33.2747429 C190.818267,31.5517789 192.218175,30.7979821 193.079657,29.6134443 C193.618083,28.9673328 193.833454,28.5365918 194.15651,27.8904803 C193.833454,27.7827951 193.510398,27.5674245 193.295028,27.1366835 C193.187342,27.1366835 192.971972,27.1366835 192.971972,27.1366835 L192.971972,26.490572 L193.402713,26.490572 C193.510398,26.059831 193.941139,25.8444605 194.37188,25.8444605 C194.802621,25.8444605 195.233362,26.059831 195.341047,26.490572 L195.771788,26.490572 L195.771788,27.1366835 C195.771788,27.1366835 195.448733,27.1366835 195.448733,27.1366835 C195.341047,27.5674245 195.017992,27.7827951 194.587251,27.8904803 C194.910306,28.5365918 195.125677,28.9673328 195.664103,29.6134443 C196.63327,30.9056674 197.925493,31.5517789 198.033179,33.2747429 C198.033179,33.8131692 197.925493,34.3515954 197.817808,34.7823364 L198.248549,34.7823364 L198.571605,35.5361332 L200.832995,35.5361332 L200.832995,36.720671 L198.571605,36.720671 L198.571605,43.6125271 L201.048366,43.6125271 L201.048366,44.9047501 C199.971513,44.6893796 199.002346,44.9047501 198.571605,45.9816027 C198.033179,47.1661404 197.279382,47.5968814 196.094844,47.9199372 L196.094844,48.9967897 C196.956326,49.6429012 197.602438,50.5043833 197.925493,51.5812358 L197.925493,82.8099589 C197.494752,83.5637557 196.956326,84.2098672 196.956326,85.1790344 C196.848641,85.825146 198.356234,86.7943132 198.356234,88.7326478 L198.356234,91.4247791 L199.325402,92.6093168 L199.325402,104.239324 L200.832995,100.901081 C200.294569,100.793396 199.971513,100.362655 199.971513,99.8242287 C199.971513,99.1781172 200.509939,98.7473762 201.048366,98.7473762 L201.694477,98.7473762 L201.694477,105.639232 L202.232904,106.500714 L201.479107,107.469882 L187.264653,107.469882 L187.264653,107.254511 Z M195.125677,23.906126 C195.233362,24.2291817 195.448733,24.336867 195.341047,24.767608 C195.233362,25.198349 195.017992,25.5214048 194.479565,25.62909 C193.833454,25.5214048 193.510398,24.767608 193.725769,24.2291817 C194.048824,23.6907555 194.264195,23.044644 194.479565,22.3985324 C194.694936,22.9369587 194.910306,23.3676997 195.125677,23.906126 Z M229.261902,63.1035578 C228.723476,63.1035578 228.40042,63.211243 228.40042,63.211243 C228.40042,63.211243 227.969679,63.211243 227.538938,63.1035578 C226.892826,62.9958725 226.3544,62.8881873 225.708289,62.780502 L225.492918,61.7036495 C226.462085,60.8421675 227.215882,60.5191117 228.508105,60.626797 C229.800328,60.626797 230.44644,60.9498527 231.415607,61.8113347 L231.200236,62.780502 C230.44644,62.9958725 229.908013,62.9958725 229.261902,63.1035578 Z M228.40042,44.5816944 C229.046531,44.5816944 229.584958,45.1201206 229.584958,45.7662322 C229.584958,46.4123437 229.046531,46.9507699 228.40042,46.9507699 C227.754308,46.9507699 227.215882,46.4123437 227.215882,45.7662322 C227.215882,45.1201206 227.646623,44.5816944 228.40042,44.5816944 Z M230.877181,50.2890128 C230.554125,51.1504948 229.692643,52.2273473 228.40042,52.2273473 C227.000512,52.2273473 226.031344,51.0428095 225.815974,50.2890128 C225.708289,49.965957 225.277547,49.8582717 224.846806,49.8582717 L224.846806,49.2121602 L225.923659,49.2121602 C226.246715,48.0276225 227.215882,47.1661404 228.40042,47.1661404 C229.692643,47.1661404 230.66181,47.9199372 230.877181,49.2121602 L231.954033,49.2121602 L231.954033,49.8582717 C231.415607,49.8582717 230.984866,49.8582717 230.877181,50.2890128 Z M229.154217,42.3203041 C229.046531,41.8895631 228.831161,41.6741926 228.723476,41.2434516 L228.292735,40.0589138 C227.969679,41.0280811 227.646623,41.8895631 227.215882,42.7510451 C226.785141,43.6125271 227.323567,44.4740091 228.292735,44.6893796 C228.938846,44.5816944 229.369587,44.1509534 229.477272,43.3971566 C229.584958,42.8587304 229.369587,42.6433599 229.154217,42.3203041 Z M226.785141,55.9963311 C226.785141,55.3502196 227.323567,52.3350325 228.40042,52.3350325 C229.477272,52.3350325 229.908013,55.2425344 230.015699,55.8886459 C229.908013,58.1500362 226.785141,58.2577214 226.785141,55.9963311 Z M230.554125,59.1192034 C230.554125,60.0883707 229.369587,60.626797 228.40042,60.626797 C227.431253,60.626797 226.246715,60.196056 226.246715,59.1192034 C226.246715,58.1500362 227.431253,57.6116099 228.40042,57.6116099 C229.369587,57.7192952 230.554125,58.1500362 230.554125,59.1192034 Z M72.9029157,63.1035578 C72.3644894,63.1035578 72.0414337,63.211243 72.0414337,63.211243 C72.0414337,63.211243 71.6106927,63.211243 71.1799517,63.1035578 C70.5338402,62.9958725 69.9954139,62.8881873 69.3493024,62.780502 L69.1339319,61.7036495 C70.1030991,60.8421675 70.8568959,60.5191117 72.1491189,60.626797 C73.441342,60.626797 74.0874535,60.9498527 75.0566207,61.8113347 L74.8412502,62.780502 C74.1951387,62.9958725 73.5490272,62.9958725 72.9029157,63.1035578 Z M72.0414337,44.5816944 C72.6875452,44.5816944 73.2259715,45.1201206 73.2259715,45.7662322 C73.2259715,46.4123437 72.6875452,46.9507699 72.0414337,46.9507699 C71.3953222,46.9507699 70.8568959,46.4123437 70.8568959,45.7662322 C70.8568959,45.1201206 71.3953222,44.5816944 72.0414337,44.5816944 Z M74.6258797,50.2890128 C74.302824,51.1504948 73.441342,52.2273473 72.1491189,52.2273473 C70.7492107,52.2273473 69.7800434,51.0428095 69.5646729,50.2890128 C69.4569876,49.965957 69.0262466,49.8582717 68.5955056,49.8582717 L68.5955056,49.2121602 L69.6723581,49.2121602 C69.9954139,48.0276225 70.9645812,47.1661404 72.1491189,47.1661404 C73.441342,47.1661404 74.4105092,47.9199372 74.6258797,49.2121602 L75.7027323,49.2121602 L75.7027323,49.8582717 C75.0566207,49.8582717 74.733565,49.8582717 74.6258797,50.2890128 Z M72.9029157,42.3203041 C72.7952305,41.8895631 72.5798599,41.6741926 72.4721747,41.2434516 L72.0414337,40.0589138 C71.7183779,41.0280811 71.3953222,41.8895631 70.9645812,42.7510451 C70.5338402,43.6125271 71.0722664,44.4740091 72.0414337,44.6893796 C72.6875452,44.5816944 73.1182862,44.1509534 73.2259715,43.3971566 C73.2259715,42.8587304 73.010601,42.6433599 72.9029157,42.3203041 Z M70.4261549,55.9963311 C70.4261549,55.3502196 70.9645812,52.3350325 72.0414337,52.3350325 C73.1182862,52.3350325 73.5490272,55.2425344 73.6567125,55.8886459 C73.6567125,58.1500362 70.4261549,58.2577214 70.4261549,55.9963311 Z M74.1951387,59.1192034 C74.1951387,60.0883707 73.010601,60.626797 72.0414337,60.626797 C71.0722664,60.626797 69.8877286,60.196056 69.8877286,59.1192034 C69.8877286,58.1500362 71.0722664,57.6116099 72.0414337,57.6116099 C73.010601,57.6116099 74.1951387,58.1500362 74.1951387,59.1192034 Z M63.4266135,105.208491 C62.9958725,104.239324 62.349761,103.270157 61.91902,101.977934 C60.8421675,98.7473762 60.3037412,96.7013564 60.7344822,93.3631136 C61.2729085,88.9480183 64.072725,87.3327395 66.0110596,83.3483852 C67.8417089,79.5794013 69.3493024,77.6410668 70.5338402,73.5490272 C71.6106927,70.1030991 71.9337484,67.6263383 72.1491189,64.3957808 C71.9337484,64.3957808 71.5030074,64.3957808 70.7492107,65.1495775 C69.9954139,65.9033743 68.7031909,71.1799517 66.9802268,74.5181945 C65.5803186,77.1026405 64.503466,78.5025488 62.2420757,80.4408834 C58.3654067,83.6714409 53.6272556,84.6406082 51.9042915,87.54811 C50.396698,90.132556 49.8582717,91.9632053 50.1813275,94.8707071 C50.7197538,98.7473762 52.8734588,100.578026 55.8886459,103.054786 C57.0731836,104.023954 58.3654067,104.670065 59.4422592,105.208491 L63.4266135,105.208491 L63.4266135,105.208491 Z M176.603814,99.8242287 C176.603814,99.2858025 177.034555,98.7473762 177.572981,98.639691 C177.572981,98.639691 177.680666,98.639691 177.680666,98.20895 C177.680666,97.8858942 177.572981,97.8858942 177.572981,97.8858942 L175.634646,97.8858942 C174.988535,97.8858942 174.342423,98.9627467 174.342423,99.8242287 C174.342423,100.25497 174.450108,100.685711 174.773164,100.901081 L172.942515,105.100806 L173.0502,105.316177 L175.203905,105.316177 L177.034555,101.008767 C177.034555,101.008767 177.14224,100.901081 177.14224,100.793396 C177.14224,100.685711 177.14224,100.578026 177.034555,100.578026 C176.819184,100.578026 176.603814,100.147284 176.603814,99.8242287 Z M170.035013,99.8242287 C170.035013,99.2858025 170.465754,98.7473762 171.00418,98.639691 C171.00418,98.639691 171.111866,98.639691 171.111866,98.20895 C171.111866,97.8858942 171.00418,97.8858942 171.00418,97.8858942 L169.065846,97.8858942 C168.419734,97.8858942 167.773623,98.9627467 167.773623,99.8242287 C167.773623,100.25497 167.881308,100.685711 168.204364,100.901081 L166.373715,105.100806 L166.4814,105.316177 L168.635105,105.316177 L170.465754,101.008767 C170.465754,101.008767 170.573439,100.901081 170.465754,100.793396 C170.465754,100.685711 170.465754,100.578026 170.358069,100.578026 C170.142698,100.578026 170.035013,100.147284 170.035013,99.8242287 Z M163.358528,99.8242287 C163.358528,99.2858025 163.789269,98.7473762 164.327695,98.639691 C164.327695,98.639691 164.43538,98.639691 164.43538,98.20895 C164.43538,97.8858942 164.327695,97.8858942 164.327695,97.8858942 L162.38936,97.8858942 C161.743249,97.8858942 161.097137,98.9627467 161.097137,99.8242287 C161.097137,100.25497 161.204822,100.685711 161.527878,100.901081 L159.697229,105.100806 L159.804914,105.316177 L161.958619,105.316177 L163.789269,101.008767 C163.789269,101.008767 163.896954,100.901081 163.789269,100.793396 C163.789269,100.685711 163.789269,100.578026 163.681583,100.578026 C163.573898,100.578026 163.358528,100.147284 163.358528,99.8242287 Z M156.789727,99.8242287 C156.789727,99.2858025 157.220468,98.7473762 157.758894,98.639691 C157.758894,98.639691 157.86658,98.639691 157.86658,98.20895 C157.86658,97.8858942 157.758894,97.8858942 157.758894,97.8858942 L155.82056,97.8858942 C155.174448,97.8858942 154.528337,98.9627467 154.528337,99.8242287 C154.528337,100.25497 154.636022,100.685711 154.959078,100.901081 L153.128429,105.100806 L153.236114,105.316177 L155.389819,105.316177 L157.220468,101.008767 C157.220468,101.008767 157.328153,100.901081 157.220468,100.793396 C157.220468,100.685711 157.220468,100.578026 157.112783,100.578026 C156.897412,100.578026 156.789727,100.147284 156.789727,99.8242287 Z M150.113241,99.8242287 C150.113241,99.2858025 150.543983,98.7473762 151.082409,98.639691 C151.082409,98.639691 151.190094,98.639691 151.190094,98.20895 C151.190094,97.8858942 151.082409,97.8858942 151.082409,97.8858942 L149.144074,97.8858942 C148.497963,97.8858942 147.851851,98.9627467 147.851851,99.8242287 C147.851851,100.25497 147.959536,100.685711 148.282592,100.901081 L146.451943,105.100806 L146.559628,105.316177 L148.713333,105.316177 L150.543983,101.008767 C150.543983,101.008767 150.651668,100.901081 150.543983,100.793396 C150.543983,100.685711 150.543983,100.578026 150.436297,100.578026 C150.328612,100.578026 150.113241,100.147284 150.113241,99.8242287 Z M106.285344,99.8242287 C106.285344,99.2858025 106.716085,98.7473762 107.254511,98.639691 C107.254511,98.639691 107.362196,98.639691 107.362196,98.20895 C107.362196,97.8858942 107.254511,97.8858942 107.254511,97.8858942 L105.316177,97.8858942 C104.670065,97.8858942 104.023954,98.9627467 104.023954,99.8242287 C104.023954,100.25497 104.131639,100.685711 104.454695,100.901081 L102.624045,105.100806 L102.731731,105.316177 L104.885436,105.316177 L106.716085,101.008767 C106.716085,101.008767 106.82377,100.901081 106.716085,100.793396 C106.716085,100.685711 106.716085,100.578026 106.6084,100.578026 C106.500714,100.578026 106.285344,100.147284 106.285344,99.8242287 Z M143.436756,99.8242287 C143.436756,99.2858025 143.867497,98.7473762 144.405923,98.639691 C144.405923,98.639691 144.513608,98.639691 144.513608,98.20895 C144.513608,97.8858942 144.405923,97.8858942 144.405923,97.8858942 L142.359903,97.8858942 C141.929162,96.3783007 141.390736,94.8707071 141.06768,93.2554284 C140.529254,91.4247791 140.206198,89.8095003 139.883143,88.1942215 C138.160179,85.6097755 136.006473,83.7791262 135.898788,80.2255128 C135.791103,77.4256963 137.514067,75.7027323 139.129346,73.7643977 C139.990828,72.7952305 139.775457,72.6875452 140.206198,71.2876369 C140.206198,71.2876369 140.85231,68.9185614 141.283051,67.3032826 C142.89833,61.057538 145.590461,58.1500362 147.42111,51.9042915 C148.928704,46.7353994 150.005556,43.8278976 150.328612,38.443635 C150.543983,35.3207627 150.543983,33.3824282 150.220927,30.4749264 L150.113241,30.1518706 C148.821018,30.0441853 148.713333,31.4440936 148.605648,32.4132609 C148.174907,39.8435433 145.37509,42.4279893 140.744625,47.3815109 C139.452402,48.7814192 136.5449,50.0736422 134.821936,50.9351243 C127.176283,54.8117933 121.684335,59.2268887 118.453777,65.5803186 C117.915351,66.7648563 117.48461,68.2724499 117.161554,69.8877286 C116.946184,71.0722664 116.838499,72.1491189 116.730813,73.1182862 C115.977017,74.6258797 119.207574,76.456529 119.53063,80.0101423 C119.961371,83.2406999 119.099889,84.7482934 118.453777,86.0405165 C118.561463,86.255887 122.438132,92.8246874 126.422486,96.4859859 C127.068598,97.1320974 127.714709,97.6705237 128.360821,98.1012647 C128.037765,98.5320057 127.822394,99.070432 127.822394,99.6088582 C127.822394,100.039599 127.93008,100.47034 128.253135,100.685711 L126.422486,104.885436 L126.530171,105.100806 L128.683876,105.100806 L130.514526,100.793396 C130.514526,100.793396 130.622211,100.685711 130.514526,100.578026 C130.514526,100.47034 130.514526,100.362655 130.40684,100.362655 C130.083785,100.147284 129.976099,99.8242287 129.976099,99.3934877 C129.976099,98.8550615 130.299155,98.5320057 130.729896,98.3166352 C131.052952,98.5320057 131.268322,98.8550615 131.268322,99.2858025 C131.268322,99.3934877 131.268322,99.6088582 131.160637,99.7165435 L134.283509,99.7165435 C134.283509,100.039599 134.49888,100.362655 134.71425,100.578026 L134.391195,101.439508 L132.560545,104.993121 L133.098972,104.993121 L135.252677,104.993121 L137.083326,100.685711 C137.083326,100.685711 137.191011,100.578026 137.083326,100.47034 C137.083326,100.362655 137.083326,100.25497 136.975641,100.25497 C136.652585,100.039599 136.5449,99.7165435 136.5449,99.2858025 C136.5449,98.7473762 136.867955,98.3166352 137.298696,98.20895 C137.621752,98.4243205 137.944808,98.7473762 137.944808,99.1781172 C137.944808,99.2858025 137.944808,99.501173 137.837123,99.6088582 L140.85231,99.6088582 C140.85231,99.931914 141.06768,100.25497 141.283051,100.47034 L140.959995,101.331822 L139.021661,104.885436 L139.560087,104.885436 L141.713792,104.885436 L143.544441,100.578026 C143.544441,100.578026 143.652126,100.47034 143.544441,100.362655 C143.544441,100.25497 143.544441,100.147284 143.436756,100.147284 C143.652126,100.578026 143.436756,100.147284 143.436756,99.8242287 Z M124.05341,99.8242287 C124.05341,99.2858025 124.484151,98.7473762 125.022578,98.639691 C125.022578,98.639691 125.130263,98.639691 125.130263,98.20895 C125.130263,97.8858942 125.022578,97.8858942 125.022578,97.8858942 L123.084243,97.8858942 C122.438132,97.8858942 121.79202,98.9627467 121.79202,99.8242287 C121.79202,100.25497 121.899705,100.685711 122.222761,100.901081 L120.392112,105.100806 L120.499797,105.316177 L122.653502,105.316177 L124.484151,101.008767 C124.484151,101.008767 124.591837,100.901081 124.484151,100.793396 C124.484151,100.685711 124.484151,100.578026 124.376466,100.578026 C124.161096,100.578026 124.05341,100.147284 124.05341,99.8242287 Z" id="Shape"></path>
                <g id="Group" transform="translate(0.000000, 121.361279)">
                    <path d="M3.33824282,8.93787593 C3.33824282,7.21491189 3.44592807,5.92268887 1.72296403,5.92268887 C1.07685252,5.92268887 7.65149737e-15,6.13805937 7.65149737e-15,5.06120685 C7.65149737e-15,4.41509534 0.646111513,4.19972483 1.07685252,4.09203958 C3.76898383,3.01518706 8.93787593,2.90750181 11.8453777,2.90750181 C13.676027,2.90750181 16.3681583,3.12287231 18.0911224,3.87666908 C20.3525127,4.73815109 22.1831619,6.89185614 22.1831619,9.79935795 C22.1831619,14.2144533 18.4141781,15.3989911 15.2913058,15.7220468 C19.4910306,15.9374173 23.2600145,17.7680666 23.2600145,23.3676997 C23.2600145,26.059831 22.1831619,28.2135361 20.2448274,29.6134443 C18.3064929,31.0133526 16.1527878,31.1210379 13.9990828,31.1210379 C10.3377842,31.1210379 6.78417089,30.9056674 3.23055756,30.9056674 C2.4767608,30.9056674 1.83064929,31.1210379 0.969167269,31.1210379 C0.430741009,31.1210379 0.107685252,30.9056674 0.107685252,30.1518706 C0.107685252,29.5057591 0.646111513,29.2903886 1.18453777,29.1827033 C3.66129857,28.7519623 3.44592807,27.7827951 3.44592807,24.9829785 L3.44592807,8.93787593 L3.33824282,8.93787593 Z M9.58398744,13.0299155 C9.58398744,14.8605648 9.58398744,14.8605648 10.9838957,14.8605648 C13.8913975,14.8605648 15.8297321,13.245286 15.8297321,9.58398744 C15.8297321,6.78417089 14.106768,4.63046584 11.7376925,4.63046584 C11.091581,4.63046584 10.230099,4.73815109 9.79935795,5.27657736 C9.47630219,5.70731836 9.58398744,6.78417089 9.58398744,7.32259715 L9.58398744,13.0299155 Z M9.58398744,24.6599227 C9.58398744,27.2443688 10.0147284,29.3980738 12.4914892,29.3980738 C15.6143616,29.3980738 16.9065846,26.5982573 16.9065846,23.3676997 C16.9065846,20.9986242 16.0451026,18.5218634 14.2144533,17.3373256 C13.1376008,16.5835288 11.953063,16.5835288 10.66084,16.5835288 C9.69167269,16.5835288 9.58398744,17.2296403 9.58398744,18.4141781 L9.58398744,24.6599227 L9.58398744,24.6599227 Z" id="Shape"></path>
                    <path d="M33.1670577,13.676027 C33.8131692,13.676027 35.428448,10.3377842 38.5513203,10.3377842 C40.1665991,10.3377842 41.7818778,11.7376925 41.7818778,13.676027 C41.7818778,15.6143616 40.3819696,17.2296403 38.6590055,17.2296403 C36.1822447,17.2296403 35.9668742,14.7528795 34.7823364,14.7528795 C32.8440019,14.7528795 33.1670577,19.2756601 33.1670577,20.6755684 L33.1670577,24.9829785 C33.1670577,25.9521458 33.0593724,27.5674245 33.2747429,28.4289066 C33.4901134,29.0750181 34.6746512,29.0750181 35.3207627,29.1827033 C35.7515037,29.2903886 36.1822447,29.5057591 36.1822447,30.1518706 C36.1822447,30.9056674 35.5361332,31.0133526 34.9977069,31.0133526 C33.3824282,31.0133526 31.7671494,30.9056674 30.1518706,30.9056674 C28.5365918,30.9056674 27.0289983,31.0133526 25.4137195,31.0133526 C24.8752932,31.0133526 24.2291817,30.9056674 24.2291817,30.1518706 C24.2291817,29.6134443 24.6599227,29.2903886 25.0906638,29.1827033 C25.62909,29.0750181 26.8136278,29.0750181 27.0289983,28.4289066 C27.2443688,27.4597393 27.2443688,25.9521458 27.2443688,24.9829785 L27.2443688,18.5218634 C27.2443688,16.6912141 27.352054,15.7220468 25.5214048,15.3989911 C24.9829785,15.3989911 24.336867,15.3989911 24.336867,14.6451943 C24.336867,13.8913975 25.5214048,13.676027 25.9521458,13.5683418 C27.5674245,13.1376008 29.7211296,12.0607482 30.9056674,10.5531547 C31.1210379,10.230099 31.4440936,9.79935795 32.3055756,9.79935795 C32.9516872,9.79935795 32.8440019,10.9838957 32.8440019,11.4146367 L32.8440019,13.676027 L33.1670577,13.676027 Z" id="Path"></path>
                    <path d="M50.7197538,24.8752932 C50.7197538,25.8444605 50.6120685,27.4597393 50.827439,28.3212213 C51.0428095,28.9673328 52.2273473,28.9673328 52.8734588,29.0750181 C53.3041998,29.1827033 53.7349408,29.3980738 53.7349408,30.0441853 C53.7349408,30.7979821 53.0888293,30.9056674 52.550403,30.9056674 C50.9351243,30.9056674 49.3198455,30.7979821 47.7045667,30.7979821 C46.0892879,30.7979821 44.5816944,30.9056674 42.9664156,30.9056674 C42.4279893,30.9056674 41.7818778,30.7979821 41.7818778,30.0441853 C41.7818778,29.5057591 42.2126188,29.1827033 42.6433599,29.0750181 C43.1817861,28.9673328 44.3663239,28.9673328 44.5816944,28.3212213 C44.7970649,27.352054 44.7970649,25.8444605 44.7970649,24.8752932 L44.7970649,18.4141781 C44.7970649,16.5835288 44.9047501,15.6143616 43.0741009,15.2913058 C42.5356746,15.2913058 41.8895631,15.2913058 41.8895631,14.537509 C41.8895631,13.7837123 43.0741009,13.5683418 43.5048419,13.4606565 C45.1201206,13.0299155 47.2738257,11.953063 48.4583635,10.4454695 C48.673734,10.1224137 48.9967897,9.69167269 49.8582717,9.69167269 C50.5043833,9.69167269 50.396698,10.8762105 50.396698,11.3069515 L50.396698,24.8752932 L50.7197538,24.8752932 Z M44.4740091,4.9535216 C44.4740091,2.90750181 46.1969732,1.61527878 47.812252,1.61527878 C49.535216,1.61527878 51.1504948,2.79981656 51.1504948,4.9535216 C51.1504948,7.21491189 49.535216,8.50713492 47.7045667,8.50713492 C45.8739174,8.50713492 44.4740091,7.21491189 44.4740091,4.9535216 Z" id="Shape"></path>
                    <path d="M55.6732754,28.2135361 C55.4579049,27.8904803 54.8117933,27.352054 54.8117933,26.8136278 C54.8117933,25.9521458 56.1040164,25.62909 56.5347574,25.4137195 L58.0423509,24.767608 C58.1500362,24.767608 59.1192034,24.336867 59.1192034,24.1214965 C59.1192034,24.0138112 58.6884624,23.7984407 58.5807772,23.7984407 C56.1040164,22.8292735 54.2733671,20.5678832 54.2733671,17.6603814 C54.2733671,15.2913058 55.4579049,13.4606565 57.0731836,12.0607482 C58.7961477,10.66084 60.9498527,10.230099 63.1035578,10.230099 C64.8265218,10.230099 66.3341153,10.4454695 67.9493941,11.1992662 C68.7031909,11.6300072 69.1339319,11.7376925 69.9954139,11.7376925 L72.2568042,11.7376925 C73.441342,11.6300072 73.7643977,11.6300072 73.7643977,13.1376008 C73.7643977,14.3221385 73.5490272,14.106768 72.4721747,14.106768 L71.1799517,14.106768 C71.1799517,14.106768 70.9645812,14.106768 70.9645812,14.3221385 C70.9645812,14.3221385 71.9337484,15.6143616 71.9337484,17.5526961 C71.9337484,22.0754767 67.9493941,24.5522375 64.3957808,24.6599227 L62.4574462,24.6599227 C62.0267052,24.6599227 60.3037412,24.6599227 60.3037412,25.5214048 C60.3037412,25.9521458 60.9498527,26.490572 61.2729085,26.5982573 C61.91902,26.8136278 62.8881873,26.8136278 63.5342988,26.8136278 L66.4418006,26.8136278 C67.9493941,26.8136278 69.6723581,26.8136278 71.0722664,27.4597393 C72.7952305,28.3212213 73.9797682,30.0441853 73.9797682,32.1978904 C73.9797682,34.9977069 72.1491189,37.151412 70.1030991,38.443635 C67.9493941,39.8435433 65.3649481,40.2742843 62.9958725,40.2742843 C60.0883707,40.2742843 53.8426261,39.5204875 53.8426261,34.9977069 C53.8426261,31.5517789 58.1500362,31.4440936 58.1500362,30.5826116 C58.1500362,30.3672411 57.5039246,29.8288148 57.3962394,29.6134443 L55.6732754,28.2135361 Z M68.9185614,35.2130775 C68.9185614,32.6286314 65.9033743,32.9516872 64.2880955,32.9516872 C62.5651315,32.9516872 60.4114265,32.5209461 59.3345739,31.8748346 C59.2268887,31.8748346 58.6884624,32.0902051 58.5807772,32.3055756 C58.1500362,32.7363167 57.9346657,33.4901134 57.9346657,34.2439102 C57.9346657,37.9052088 61.1652232,38.874376 63.7496693,38.874376 C65.7956891,38.7666908 68.9185614,38.012894 68.9185614,35.2130775 Z M66.2264301,18.1988076 C66.2264301,15.8297321 65.9033743,11.8453777 63.1035578,11.8453777 C60.5191117,11.8453777 60.0883707,14.6451943 60.0883707,17.0142698 C60.0883707,19.3833454 60.5191117,23.2600145 63.3189283,23.2600145 C65.9033743,23.2600145 66.2264301,20.4601979 66.2264301,18.1988076 Z" id="Shape"></path>
                    <path d="M96.0552449,24.9829785 C96.0552449,25.7367753 95.9475597,27.5674245 96.2706154,28.2135361 C96.7013564,28.9673328 97.4551532,28.9673328 98.20895,29.1827033 C98.639691,29.2903886 99.070432,29.5057591 99.070432,30.1518706 C99.070432,30.9056674 98.4243205,30.9056674 97.8858942,30.9056674 C96.0552449,30.9056674 94.3322809,30.7979821 92.5016316,30.7979821 C91.1017233,30.7979821 89.701815,30.9056674 88.3019068,30.9056674 C87.8711658,30.9056674 87.4404247,30.7979821 87.4404247,30.1518706 C87.4404247,29.6134443 87.7634805,29.2903886 88.1942215,29.1827033 C88.6249625,29.0750181 89.3787593,28.9673328 89.701815,28.4289066 C90.2402413,27.5674245 90.132556,25.9521458 90.132556,25.0906638 L90.132556,18.8449191 C90.132556,16.1527878 90.132556,13.3529713 87.0096837,13.3529713 C85.9328312,13.3529713 84.6406082,13.8913975 83.8868114,14.6451943 C83.2406999,15.3989911 83.2406999,16.0451026 83.2406999,17.0142698 L83.2406999,25.0906638 C83.2406999,25.7367753 83.1330147,27.4597393 83.4560704,28.1058508 C83.6714409,28.6442771 84.1021819,29.0750181 84.6406082,29.1827033 C85.1790344,29.3980738 85.9328312,29.2903886 85.9328312,30.1518706 C85.9328312,30.7979821 85.5020902,30.9056674 85.0713492,30.9056674 C84.3175524,30.9056674 83.6714409,30.7979821 82.8099589,30.7979821 C80.3331981,30.7979821 77.8564373,30.9056674 75.3796765,30.9056674 C74.8412502,30.9056674 74.1951387,30.9056674 74.1951387,30.1518706 C74.1951387,29.5057591 74.733565,29.2903886 75.0566207,29.1827033 C75.595047,29.0750181 76.456529,28.9673328 76.88727,28.4289066 C77.5333815,27.5674245 77.318011,25.9521458 77.318011,25.0906638 L77.318011,6.89185614 C77.318011,4.52278059 77.4256963,4.09203958 75.2719913,3.66129857 C74.9489355,3.66129857 74.5181945,3.44592807 74.5181945,3.01518706 C74.5181945,2.15370504 75.595047,2.04601979 76.1334733,2.04601979 C77.8564373,1.83064929 79.4717161,1.18453777 81.1946801,0.430741009 C81.6254211,0.215370504 82.1638474,-3.06059895e-14 82.5945884,-3.06059895e-14 C83.4560704,-3.06059895e-14 83.2406999,1.50759353 83.2406999,2.04601979 L83.2406999,12.4914892 C83.2406999,12.7068598 83.2406999,12.9222303 83.4560704,12.9222303 C83.9944967,12.9222303 86.3635722,10.3377842 89.701815,10.3377842 C91.4247791,10.3377842 93.4707989,11.091581 94.6553366,12.5991745 C95.9475597,14.2144533 95.9475597,16.3681583 95.9475597,18.4141781 L95.9475597,24.9829785 L96.0552449,24.9829785 Z" id="Path"></path>
                    <path d="M106.931455,21.9677914 C106.931455,23.5830702 106.82377,27.8904803 108.762105,27.8904803 C110.054328,27.8904803 110.808124,26.5982573 111.454236,26.5982573 C111.669606,26.5982573 111.884977,26.8136278 111.884977,27.2443688 C111.884977,27.7827951 111.13118,28.6442771 110.808124,29.0750181 C109.515901,30.4749264 107.577567,31.3364084 105.854603,31.3364084 C104.56238,31.3364084 103.162472,30.6902969 102.30099,29.5057591 C101.439508,28.1058508 101.224137,26.2752015 101.224137,24.6599227 L101.224137,15.5066763 C101.224137,15.1836206 101.224137,13.9990828 101.116452,13.676027 C101.008767,13.245286 100.578026,13.1376008 100.25497,13.1376008 C99.7165435,13.1376008 98.5320057,13.3529713 98.5320057,12.7068598 C98.5320057,12.0607482 99.2858025,11.7376925 99.7165435,11.522322 C101.762563,10.5531547 103.700898,8.93787593 104.77775,6.78417089 C104.993121,6.24574462 105.423862,5.38426261 106.069973,5.38426261 C106.82377,5.38426261 106.716085,6.35342988 106.716085,6.99954139 L106.716085,10.0147284 C106.716085,11.1992662 106.931455,11.1992662 107.900623,11.1992662 L109.838957,11.1992662 C110.592754,11.1992662 111.238865,10.9838957 111.238865,12.0607482 C111.238865,13.245286 111.023495,13.245286 109.946642,13.245286 L108.115993,13.245286 C106.82377,13.245286 106.82377,13.245286 106.82377,14.96825 L106.82377,21.9677914 L106.931455,21.9677914 Z" id="Path"></path>
                    <path d="M111.884977,20.7832537 C111.884977,14.4298238 117.376925,10.3377842 122.653502,10.3377842 C125.237948,10.3377842 127.714709,11.091581 129.760729,12.9222303 C131.806749,14.7528795 133.314342,17.5526961 133.314342,20.4601979 C133.314342,27.0289983 127.93008,31.2287231 122.438132,31.2287231 C116.946184,31.1210379 111.884977,27.352054 111.884977,20.7832537 Z M127.176283,21.4293652 C127.176283,19.3833454 126.745542,16.7988993 125.991745,15.0759353 C125.345633,13.4606565 123.945725,11.8453777 122.330446,11.8453777 C119.099889,11.8453777 118.023036,16.6912141 118.023036,19.5987159 C118.023036,22.8292735 119.207574,29.7211296 123.084243,29.7211296 C126.422486,29.7211296 127.176283,24.336867 127.176283,21.4293652 Z" id="Shape"></path>
                    <path d="M143.544441,13.3529713 C144.190553,13.3529713 146.021202,10.3377842 149.790186,10.3377842 C151.51315,10.3377842 153.236114,10.8762105 154.636022,12.1684335 C156.251301,13.676027 156.251301,15.5066763 156.251301,17.6603814 L156.251301,24.9829785 C156.251301,26.059831 156.143616,27.6751098 156.682042,28.4289066 C157.112783,28.9673328 157.86658,29.0750181 158.512691,29.1827033 C158.943432,29.2903886 159.374173,29.5057591 159.374173,30.1518706 C159.374173,30.9056674 158.728062,30.9056674 158.189635,30.9056674 C156.789727,30.9056674 155.497504,30.7979821 154.097596,30.7979821 C152.374632,30.7979821 150.543983,30.9056674 148.821018,30.9056674 C148.390277,30.9056674 147.959536,30.7979821 147.959536,30.1518706 C147.959536,29.6134443 148.282592,29.2903886 148.713333,29.1827033 C149.251759,28.9673328 149.897871,28.8596476 150.328612,28.2135361 C150.759353,27.5674245 150.543983,25.7367753 150.543983,24.9829785 L150.543983,18.5218634 C150.543983,17.3373256 150.436297,15.7220468 149.897871,14.7528795 C149.359445,13.7837123 148.282592,13.1376008 147.313425,13.1376008 C146.344258,13.1376008 145.267405,13.676027 144.405923,14.4298238 C143.329071,15.3989911 143.544441,16.3681583 143.544441,17.8757519 L143.544441,24.9829785 C143.544441,25.8444605 143.436756,27.5674245 143.759812,28.2135361 C144.190553,28.8596476 144.836664,28.9673328 145.37509,29.1827033 C145.805831,29.2903886 146.128887,29.6134443 146.128887,30.1518706 C146.128887,30.7979821 145.698146,30.9056674 145.267405,30.9056674 C143.544441,30.9056674 141.713792,30.7979821 139.990828,30.7979821 C138.59092,30.7979821 137.298696,30.9056674 135.898788,30.9056674 C135.360362,30.9056674 134.71425,30.9056674 134.71425,30.1518706 C134.71425,29.5057591 135.252677,29.2903886 135.575732,29.1827033 C136.114159,29.0750181 136.975641,28.9673328 137.406382,28.4289066 C137.944808,27.5674245 137.837123,25.9521458 137.837123,24.9829785 L137.837123,18.5218634 C137.837123,16.6912141 137.944808,15.7220468 136.114159,15.3989911 C135.575732,15.3989911 134.929621,15.3989911 134.929621,14.6451943 C134.929621,13.8913975 136.114159,13.676027 136.5449,13.5683418 C138.160179,13.1376008 140.313884,12.0607482 141.498421,10.5531547 C141.713792,10.230099 142.036848,9.79935795 142.89833,9.79935795 C143.544441,9.79935795 143.436756,10.9838957 143.436756,11.4146367 L143.436756,13.3529713 L143.544441,13.3529713 Z" id="Path"></path>
                    <path d="M193.618083,26.3828868 C194.694936,27.7827951 195.341047,28.7519623 196.956326,29.0750181 C197.494752,29.1827033 198.140864,29.2903886 198.140864,30.0441853 C198.140864,30.9056674 197.279382,31.0133526 196.740956,31.0133526 C195.448733,31.0133526 194.048824,30.7979821 192.648916,30.7979821 C191.787434,30.7979821 190.925952,30.7979821 190.06447,30.9056674 C188.987618,30.9056674 188.879932,30.5826116 188.233821,29.7211296 L186.941598,27.8904803 C186.833912,27.7827951 186.295486,26.921313 186.187801,26.921313 C186.080116,26.921313 185.864745,27.1366835 185.75706,27.2443688 C183.280299,29.9365001 181.341965,31.5517789 177.788351,31.5517789 C173.911682,31.5517789 170.142698,28.8596476 170.142698,24.0138112 C170.142698,19.4910306 173.480941,17.6603814 176.711499,16.2604731 C176.926869,16.1527878 177.465296,15.9374173 177.465296,15.6143616 C177.465296,15.0759353 174.880849,12.383804 174.880849,9.15324643 C174.880849,7.10722664 175.850017,5.49194786 177.35761,4.41509534 C178.972889,3.23055756 181.018909,2.90750181 182.849558,2.90750181 C185.864745,2.90750181 190.710582,3.66129857 190.710582,8.18407916 C190.710582,10.0147284 189.956785,11.1992662 188.449191,12.1684335 C187.480024,12.814545 186.080116,13.4606565 185.003263,13.676027 C184.895578,13.676027 184.572522,13.8913975 184.572522,14.106768 C184.572522,14.3221385 185.110948,14.8605648 185.110948,14.96825 L188.879932,19.8140864 C188.987618,19.9217716 189.202988,20.2448274 189.310673,20.2448274 C189.633729,20.2448274 191.033637,17.7680666 191.033637,17.0142698 C191.033637,16.2604731 190.06447,16.1527878 189.633729,16.0451026 C189.095303,15.9374173 188.341506,16.0451026 188.341506,15.1836206 C188.341506,14.2144533 189.310673,14.3221385 189.8491,14.3221385 L196.63327,14.3221385 C197.064011,14.3221385 197.710123,14.4298238 197.710123,15.0759353 C197.710123,15.8297321 197.064011,15.9374173 196.525585,16.0451026 C195.341047,16.2604731 194.910306,16.3681583 193.941139,17.2296403 C193.510398,17.6603814 190.602896,21.2139947 190.602896,21.8601062 C190.602896,22.1831619 191.141323,22.8292735 191.249008,23.044644 L193.618083,26.3828868 Z M178.865204,17.3373256 C178.757519,17.1219551 178.649833,17.0142698 178.434463,17.0142698 C178.111407,17.0142698 177.35761,17.7680666 177.14224,18.0911224 C176.388443,18.8449191 175.957702,20.1371422 175.957702,21.3216799 C175.957702,24.5522375 178.326778,27.4597393 181.126594,27.4597393 C182.311132,27.4597393 183.172614,27.0289983 184.141781,26.3828868 C184.357152,26.1675163 184.895578,25.7367753 184.895578,25.4137195 C184.895578,25.198349 184.464837,24.767608 184.357152,24.6599227 L178.865204,17.3373256 Z M184.680207,11.8453777 C185.434004,10.9838957 185.649375,10.0147284 185.649375,8.83019068 C185.649375,6.89185614 184.464837,4.41509534 182.634188,4.41509534 C181.341965,4.41509534 180.480483,5.49194786 180.480483,6.99954139 C180.480483,8.83019068 181.880391,10.66084 182.957243,12.0607482 C183.064929,12.1684335 183.280299,12.5991745 183.49567,12.5991745 C183.926411,12.5991745 184.464837,12.1684335 184.680207,11.8453777 Z" id="Shape"></path>
                    <path d="M226.785141,15.3989911 C228.077364,15.3989911 228.077364,15.3989911 228.077364,13.7837123 L228.077364,9.58398744 C228.077364,6.89185614 228.292735,5.81500362 225.815974,5.27657736 C225.385233,5.1688921 224.631436,5.1688921 224.631436,4.41509534 C224.631436,3.76898383 225.062177,3.55361332 225.492918,3.55361332 C227.431253,3.55361332 229.369587,3.76898383 231.307922,3.76898383 C233.138571,3.76898383 234.96922,3.55361332 236.799869,3.55361332 C237.338296,3.55361332 237.769037,3.66129857 237.769037,4.41509534 C237.769037,5.06120685 237.122925,5.1688921 236.692184,5.27657736 C234.107738,5.70731836 234.323109,6.67648563 234.323109,9.58398744 L234.323109,25.0906638 C234.323109,27.6751098 234.215423,28.7519623 236.584499,29.1827033 C237.122925,29.2903886 237.769037,29.3980738 237.769037,30.1518706 C237.769037,30.7979821 237.338296,31.0133526 236.907555,31.0133526 C234.96922,31.0133526 233.030886,30.7979821 231.092551,30.7979821 C229.261902,30.7979821 227.431253,31.0133526 225.600603,31.0133526 C225.062177,31.0133526 224.739121,30.7979821 224.739121,30.1518706 C224.739121,29.5057591 225.277547,29.2903886 225.815974,29.1827033 C228.292735,28.7519623 228.185049,27.9981656 228.185049,25.0906638 L228.185049,18.4141781 C228.185049,17.2296403 228.077364,17.3373256 227.000512,17.3373256 L220.216341,17.3373256 C218.601062,17.3373256 218.708747,17.1219551 218.708747,18.9526044 L218.708747,25.0906638 C218.708747,27.6751098 218.601062,28.7519623 220.970137,29.1827033 C221.508564,29.2903886 222.154675,29.3980738 222.154675,30.1518706 C222.154675,30.7979821 221.723934,31.0133526 221.293193,31.0133526 C219.354859,31.0133526 217.416524,30.7979821 215.47819,30.7979821 C213.64754,30.7979821 211.816891,31.0133526 209.986242,31.0133526 C209.447815,31.0133526 209.12476,30.7979821 209.12476,30.1518706 C209.12476,29.5057591 209.663186,29.2903886 210.201612,29.1827033 C212.678373,28.7519623 212.570688,27.9981656 212.570688,25.0906638 L212.570688,9.58398744 C212.570688,6.89185614 212.786058,5.81500362 210.309297,5.27657736 C209.878556,5.1688921 209.12476,5.1688921 209.12476,4.41509534 C209.12476,3.76898383 209.555501,3.55361332 209.986242,3.55361332 C211.924576,3.55361332 213.862911,3.76898383 215.801245,3.76898383 C217.631895,3.76898383 219.462544,3.55361332 221.293193,3.55361332 C221.831619,3.55361332 222.26236,3.66129857 222.26236,4.41509534 C222.26236,5.06120685 221.616249,5.1688921 221.185508,5.27657736 C218.601062,5.70731836 218.816432,6.67648563 218.816432,9.58398744 L218.816432,13.7837123 C218.816432,15.3989911 218.816432,15.3989911 220.216341,15.3989911 L226.785141,15.3989911 Z" id="Path"></path>
                    <path d="M238.738204,20.7832537 C238.738204,14.4298238 244.230152,10.3377842 249.506729,10.3377842 C252.091175,10.3377842 254.567936,11.091581 256.613956,12.9222303 C258.659976,14.7528795 260.167569,17.5526961 260.167569,20.4601979 C260.167569,27.0289983 254.783307,31.2287231 249.291359,31.2287231 C243.799411,31.1210379 238.738204,27.352054 238.738204,20.7832537 Z M254.02951,21.4293652 C254.02951,19.3833454 253.598769,16.7988993 252.844972,15.0759353 C252.198861,13.4606565 250.798952,11.8453777 249.183673,11.8453777 C245.953116,11.8453777 244.876263,16.6912141 244.876263,19.5987159 C244.876263,22.8292735 246.060801,29.7211296 249.93747,29.7211296 C253.275713,29.7211296 254.02951,24.336867 254.02951,21.4293652 Z" id="Shape"></path>
                    <path d="M275.674245,17.1219551 C275.997301,16.2604731 276.535728,14.96825 276.535728,14.106768 C276.535728,12.9222303 275.674245,12.7068598 274.812763,12.5991745 C274.274337,12.4914892 273.52054,12.5991745 273.52054,11.7376925 C273.52054,11.091581 273.951281,10.8762105 274.489708,10.8762105 C275.674245,10.8762105 276.751098,10.9838957 277.827951,10.9838957 C278.904803,10.9838957 280.089341,10.8762105 281.166193,10.8762105 C281.70462,10.8762105 282.243046,10.9838957 282.243046,11.6300072 C282.243046,12.1684335 281.812305,12.4914892 281.381564,12.5991745 C279.87397,12.9222303 279.550915,12.7068598 278.797118,14.537509 L272.551373,29.5057591 C272.012947,30.6902969 271.905262,31.2287231 270.720724,31.2287231 C269.643871,31.2287231 269.536186,30.5826116 269.105445,29.6134443 L263.398127,15.8297321 C263.182756,15.3989911 262.64433,13.8913975 262.321274,13.4606565 C261.890533,12.9222303 261.567477,12.814545 261.029051,12.7068598 C260.490625,12.5991745 259.844513,12.7068598 259.844513,11.8453777 C259.844513,10.9838957 260.59831,10.9838957 261.136736,10.9838957 C262.536645,10.9838957 264.151924,11.091581 265.659517,11.091581 C267.382481,11.091581 268.99776,10.9838957 270.613039,10.9838957 C271.151465,10.9838957 271.797576,10.9838957 271.797576,11.7376925 C271.797576,12.5991745 270.936094,12.5991745 270.397668,12.7068598 C269.859242,12.7068598 269.21313,12.9222303 269.21313,13.676027 C269.21313,14.106768 269.536186,14.8605648 269.643871,15.2913058 L272.228317,22.2908472 C272.336003,22.5062177 272.659058,23.5830702 272.982114,23.5830702 C273.197485,23.5830702 273.52054,22.613903 273.52054,22.3985324 L275.674245,17.1219551 Z" id="Path"></path>
                    <path d="M289.242587,18.6295486 C288.27342,18.6295486 287.950364,18.5218634 287.950364,19.7064011 C287.950364,23.906126 290.427125,28.1058508 294.519165,28.1058508 C297.426666,28.1058508 298.611204,25.8444605 299.580371,25.8444605 C299.903427,25.8444605 300.118798,26.059831 300.118798,26.490572 C300.118798,27.352054 298.718889,28.5365918 298.180463,28.9673328 C296.349814,30.3672411 294.196109,31.1210379 291.827033,31.1210379 C286.442771,31.1210379 281.812305,26.5982573 281.812305,20.4601979 C281.812305,14.2144533 286.981197,10.3377842 292.150089,10.3377842 C294.088424,10.3377842 296.349814,10.9838957 297.857407,12.383804 C299.14963,13.4606565 300.226483,15.0759353 300.226483,17.0142698 C300.226483,18.6295486 299.365001,18.6295486 298.072778,18.6295486 L289.242587,18.6295486 L289.242587,18.6295486 Z M293.549997,16.7988993 C294.62685,16.5835288 294.949906,15.7220468 294.949906,14.6451943 C294.949906,13.0299155 293.873053,11.8453777 292.473145,11.8453777 C291.288607,11.8453777 290.104069,12.4914892 289.350273,13.4606565 C288.811846,14.106768 288.27342,15.5066763 288.27342,16.3681583 C288.27342,17.1219551 288.919532,17.0142698 289.565643,17.0142698 C290.642496,17.0142698 292.58083,17.0142698 293.549997,16.7988993 Z" id="Shape"></path>
                    <path d="M64.7188365,66.3341153 C64.6111513,67.7340236 64.7188365,68.3801351 63.5342988,69.1339319 C61.3805937,70.6415254 58.6884624,71.1799517 56.2117016,71.1799517 C52.8734588,71.1799517 48.8891045,70.3184697 46.1969732,67.9493941 C43.2894714,65.4726333 41.3511368,61.2729085 41.3511368,57.0731836 C41.3511368,52.7657736 43.2894714,48.7814192 46.3046584,46.1969732 C49.3198455,43.7202124 53.3041998,42.5356746 56.9654984,42.5356746 C58.7961477,42.5356746 60.9498527,42.8587304 62.6728167,43.5048419 C63.7496693,43.8278976 63.7496693,44.0432681 63.8573545,45.2278059 L64.1804103,47.4891962 C64.2880955,47.9199372 64.2880955,48.3506782 64.2880955,48.7814192 C64.2880955,49.2121602 63.9650398,49.535216 63.5342988,49.535216 C61.8113347,49.535216 61.7036495,44.3663239 56.5347574,44.3663239 C54.0579966,44.3663239 51.688921,45.9816027 50.2890128,48.242993 C48.7814192,50.6120685 48.242993,53.8426261 48.242993,56.7501279 C48.242993,59.5499444 48.7814192,62.780502 50.1813275,65.1495775 C51.5812358,67.7340236 53.9503113,69.5646729 56.6424426,69.5646729 C58.1500362,69.5646729 59.5499444,68.9185614 60.626797,67.9493941 C61.8113347,66.8725416 62.4574462,65.4726333 63.1035578,63.9650398 C63.3189283,63.5342988 63.5342988,62.9958725 64.072725,62.9958725 C64.934207,62.9958725 64.8265218,63.9650398 64.8265218,64.6111513 L64.7188365,66.3341153 Z" id="Path"></path>
                    <path d="M74.9489355,64.6111513 C74.9489355,65.5803186 74.8412502,67.1955973 75.0566207,68.0570794 C75.2719913,68.7031909 76.456529,68.7031909 77.1026405,68.8108761 C77.5333815,68.9185614 77.9641226,69.1339319 77.9641226,69.6723581 C77.9641226,70.4261549 77.318011,70.5338402 76.7795848,70.5338402 C75.164306,70.5338402 73.5490272,70.4261549 71.9337484,70.4261549 C70.3184697,70.4261549 68.8108761,70.5338402 67.1955973,70.5338402 C66.6571711,70.5338402 66.0110596,70.4261549 66.0110596,69.6723581 C66.0110596,69.1339319 66.4418006,68.8108761 66.8725416,68.8108761 C67.4109678,68.7031909 68.5955056,68.7031909 68.8108761,68.0570794 C69.0262466,67.0879121 69.0262466,65.5803186 69.0262466,64.6111513 L69.0262466,58.1500362 C69.0262466,56.3193869 69.1339319,55.3502196 67.3032826,55.0271638 C66.7648563,55.0271638 66.1187448,55.0271638 66.1187448,54.2733671 C66.1187448,53.5195703 67.3032826,53.3041998 67.7340236,53.1965146 C69.3493024,52.7657736 71.5030074,51.688921 72.6875452,50.1813275 C72.9029157,49.8582717 73.2259715,49.4275307 74.0874535,49.4275307 C74.733565,49.4275307 74.6258797,50.6120685 74.6258797,51.0428095 L74.6258797,64.6111513 L74.9489355,64.6111513 Z M68.7031909,44.6893796 C68.7031909,42.6433599 70.4261549,41.3511368 72.0414337,41.3511368 C73.7643977,41.3511368 75.3796765,42.5356746 75.3796765,44.6893796 C75.3796765,46.9507699 73.7643977,48.242993 71.9337484,48.242993 C70.2107844,48.242993 68.7031909,46.8430847 68.7031909,44.6893796 Z" id="Shape"></path>
                    <path d="M85.9328312,61.5959642 C85.9328312,63.211243 85.825146,67.5186531 87.7634805,67.5186531 C89.0557035,67.5186531 89.8095003,66.2264301 90.4556118,66.2264301 C90.6709823,66.2264301 90.8863528,66.4418006 90.8863528,66.8725416 C90.8863528,67.4109678 90.132556,68.2724499 89.8095003,68.7031909 C88.5172773,70.1030991 86.5789427,70.9645812 84.8559787,70.9645812 C83.5637557,70.9645812 82.1638474,70.3184697 81.3023654,69.1339319 C80.4408834,67.7340236 80.2255128,65.9033743 80.2255128,64.2880955 L80.2255128,55.1348491 C80.2255128,54.8117933 80.2255128,53.6272556 80.1178276,53.3041998 C80.0101423,52.8734588 79.5794013,52.7657736 79.2563456,52.7657736 C78.7179193,52.7657736 77.5333815,52.9811441 77.5333815,52.3350325 C77.5333815,51.688921 78.2871783,51.3658653 78.7179193,51.1504948 C80.7639391,50.1813275 82.7022736,48.5660487 83.7791262,46.4123437 C83.9944967,45.8739174 84.4252377,45.0124354 85.0713492,45.0124354 C85.825146,45.0124354 85.7174607,45.9816027 85.7174607,46.6277142 L85.7174607,49.6429012 C85.7174607,50.827439 85.9328312,50.827439 86.9019985,50.827439 L88.840333,50.827439 C89.5941298,50.827439 90.2402413,50.6120685 90.2402413,51.688921 C90.2402413,52.8734588 90.0248708,52.8734588 88.9480183,52.8734588 L87.117369,52.8734588 C85.825146,52.8734588 85.825146,52.8734588 85.825146,54.5964228 L85.825146,61.5959642 L85.9328312,61.5959642 Z" id="Path"></path>
                    <path d="M106.500714,55.3502196 C106.716085,54.8117933 106.931455,54.1656818 106.931455,53.6272556 C106.931455,52.6580883 105.962288,52.3350325 105.208491,52.2273473 C104.670065,52.2273473 103.808583,52.119662 103.808583,51.25818 C103.808583,50.6120685 104.56238,50.6120685 104.993121,50.6120685 C106.069973,50.6120685 107.146826,50.7197538 108.223678,50.7197538 C109.300531,50.7197538 110.377383,50.6120685 111.454236,50.6120685 C111.992662,50.6120685 112.423403,50.6120685 112.423403,51.25818 C112.423403,52.0119768 111.884977,52.2273473 111.346551,52.2273473 C110.377383,52.4427178 110.054328,52.3350325 109.408216,53.1965146 C108.762105,54.0579966 108.008308,55.9963311 107.577567,56.9654984 L101.870249,70.9645812 L99.8242287,76.6718995 C99.070432,79.2563456 99.1781172,79.9024571 96.7013564,79.9024571 C94.9783924,79.9024571 93.3631136,79.7947718 93.3631136,77.4256963 C93.3631136,76.7795848 93.4707989,75.8104175 93.9015399,75.2719913 C94.4399661,74.4105092 95.3014482,74.5181945 96.1629302,74.6258797 C97.3474679,74.6258797 98.20895,74.9489355 99.070432,73.872083 C99.3934877,73.441342 99.8242287,72.4721747 99.8242287,71.8260632 C99.8242287,71.1799517 99.3934877,70.1030991 99.070432,69.4569876 L93.4707989,56.4270721 C93.0400579,55.4579049 92.3939463,54.0579966 91.7478348,53.1965146 C91.2094086,52.550403 90.8863528,52.550403 90.132556,52.3350325 C89.701815,52.2273473 89.0557035,52.119662 89.0557035,51.3658653 C89.0557035,50.6120685 89.8095003,50.6120685 90.3479266,50.6120685 C92.0708906,50.6120685 93.7938546,50.7197538 95.4091334,50.7197538 C96.8090417,50.7197538 98.4243205,50.6120685 99.8242287,50.6120685 C100.362655,50.6120685 101.224137,50.6120685 101.224137,51.3658653 C101.224137,52.0119768 100.685711,52.2273473 100.25497,52.3350325 C99.7165435,52.4427178 98.7473762,52.550403 98.7473762,53.4118851 C98.7473762,53.9503113 99.1781172,54.9194786 99.3934877,55.3502196 L102.193304,62.0267052 C102.30099,62.2420757 102.731731,63.4266135 102.947101,63.4266135 C103.377842,63.4266135 103.700898,62.349761 103.700898,62.0267052 L106.500714,55.3502196 Z" id="Path"></path>
                    <path d="M146.021202,66.3341153 C145.913517,67.7340236 146.021202,68.3801351 144.836664,69.1339319 C142.682959,70.6415254 139.990828,71.1799517 137.514067,71.1799517 C134.175824,71.1799517 130.19147,70.3184697 127.499339,67.9493941 C124.591837,65.4726333 122.653502,61.2729085 122.653502,57.0731836 C122.653502,52.7657736 124.591837,48.7814192 127.607024,46.1969732 C130.622211,43.7202124 134.606565,42.5356746 138.267864,42.5356746 C140.098513,42.5356746 142.252218,42.8587304 143.975182,43.5048419 C145.052035,43.8278976 145.052035,44.0432681 145.15972,45.2278059 L145.482776,47.4891962 C145.590461,47.9199372 145.590461,48.3506782 145.590461,48.7814192 C145.590461,49.2121602 145.267405,49.535216 144.836664,49.535216 C143.1137,49.535216 143.006015,44.3663239 137.837123,44.3663239 C135.360362,44.3663239 132.991286,45.9816027 131.591378,48.242993 C130.083785,50.6120685 129.545358,53.8426261 129.545358,56.7501279 C129.545358,59.5499444 130.083785,62.780502 131.483693,65.1495775 C132.883601,67.7340236 135.252677,69.5646729 137.944808,69.5646729 C139.452402,69.5646729 140.85231,68.9185614 141.929162,67.9493941 C143.1137,66.8725416 143.759812,65.4726333 144.405923,63.9650398 C144.621294,63.5342988 144.836664,62.9958725 145.37509,62.9958725 C146.236572,62.9958725 146.128887,63.9650398 146.128887,64.6111513 L146.021202,66.3341153 Z" id="Path"></path>
                    <path d="M147.42111,60.5191117 C147.42111,54.1656818 152.913058,50.0736422 158.189635,50.0736422 C160.774081,50.0736422 163.250842,50.827439 165.296862,52.6580883 C167.342882,54.4887376 168.850475,57.2885541 168.850475,60.196056 C168.850475,66.7648563 163.466213,70.9645812 157.974265,70.9645812 C152.482317,70.8568959 147.42111,66.9802268 147.42111,60.5191117 Z M162.712416,61.1652232 C162.712416,59.1192034 162.281675,56.5347574 161.527878,54.8117933 C160.881767,53.1965146 159.481858,51.5812358 157.86658,51.5812358 C154.636022,51.5812358 153.55917,56.4270721 153.55917,59.3345739 C153.55917,62.5651315 154.743707,69.4569876 158.620376,69.4569876 C161.958619,69.3493024 162.712416,64.072725 162.712416,61.1652232 Z" id="Shape"></path>
                    <path d="M189.8491,65.9033743 C189.8491,67.0879121 190.495211,67.3032826 191.572064,67.4109678 C192.002805,67.4109678 192.32586,67.6263383 192.32586,68.0570794 C192.32586,68.8108761 191.033637,69.0262466 190.602896,69.1339319 L186.618542,70.4261549 C186.187801,70.5338402 185.434004,70.9645812 185.003263,70.9645812 C184.357152,70.9645812 184.572522,69.7800434 184.572522,69.3493024 C184.572522,69.1339319 184.680207,67.7340236 184.249466,67.7340236 C184.034096,67.7340236 183.71104,68.0570794 183.49567,68.1647646 C181.772706,69.5646729 180.049742,70.7492107 177.896037,70.7492107 C176.388443,70.7492107 174.557794,70.1030991 173.588626,68.7031909 C172.511774,67.1955973 172.404089,65.1495775 172.404089,63.3189283 L172.404089,56.3193869 C172.404089,55.5655901 172.511774,53.7349408 172.081033,53.0888293 C171.650292,52.3350325 170.896495,52.3350325 170.142698,52.119662 C169.711957,52.0119768 169.281216,51.7966063 169.281216,51.1504948 C169.281216,50.396698 169.927328,50.5043833 170.465754,50.5043833 C171.650292,50.5043833 172.83483,50.6120685 174.019367,50.6120685 C175.203905,50.6120685 176.388443,50.5043833 177.572981,50.5043833 C178.111407,50.5043833 178.219092,50.6120685 178.219092,51.1504948 L178.219092,62.8881873 C178.219092,63.8573545 178.326778,65.4726333 178.757519,66.3341153 C179.18826,67.1955973 180.157427,67.7340236 181.018909,67.7340236 C181.988076,67.7340236 183.172614,67.0879121 183.926411,66.2264301 C184.572522,65.4726333 184.464837,64.6111513 184.464837,63.5342988 L184.464837,56.4270721 C184.464837,55.5655901 184.572522,53.8426261 184.141781,53.0888293 C183.71104,52.4427178 182.957243,52.2273473 182.203447,52.119662 C181.772706,52.0119768 181.341965,51.7966063 181.341965,51.25818 C181.341965,50.5043833 181.988076,50.5043833 182.526502,50.5043833 C183.71104,50.5043833 184.895578,50.6120685 186.080116,50.6120685 C187.264653,50.6120685 188.449191,50.5043833 189.633729,50.5043833 C190.279841,50.5043833 190.172155,51.3658653 190.172155,52.0119768 L190.172155,65.9033743 L189.8491,65.9033743 Z" id="Path"></path>
                    <path d="M201.694477,52.9811441 C202.340589,52.9811441 204.171238,49.965957 207.940222,49.965957 C209.663186,49.965957 211.38615,50.5043833 212.786058,51.7966063 C214.401337,53.3041998 214.401337,55.1348491 214.401337,57.2885541 L214.401337,64.6111513 C214.401337,65.6880038 214.293652,67.3032826 214.832078,68.0570794 C215.262819,68.5955056 216.016616,68.7031909 216.662727,68.8108761 C217.093468,68.9185614 217.524209,69.1339319 217.524209,69.7800434 C217.524209,70.5338402 216.878098,70.5338402 216.339672,70.5338402 C214.939763,70.5338402 213.64754,70.4261549 212.247632,70.4261549 C210.524668,70.4261549 208.694019,70.5338402 206.971055,70.5338402 C206.540314,70.5338402 206.109573,70.4261549 206.109573,69.7800434 C206.109573,69.2416171 206.432628,68.9185614 206.863369,68.8108761 C207.401796,68.5955056 208.047907,68.4878204 208.478648,67.8417089 C208.909389,67.1955973 208.694019,65.3649481 208.694019,64.6111513 L208.694019,58.1500362 C208.694019,56.9654984 208.586333,55.3502196 208.047907,54.3810523 C207.509481,53.4118851 206.432628,52.7657736 205.463461,52.7657736 C204.494294,52.7657736 203.417441,53.3041998 202.555959,54.0579966 C201.479107,55.0271638 201.694477,55.9963311 201.694477,57.5039246 L201.694477,64.6111513 C201.694477,65.4726333 201.586792,67.1955973 201.909848,67.8417089 C202.340589,68.4878204 202.9867,68.5955056 203.525127,68.8108761 C203.955868,68.9185614 204.278923,69.2416171 204.278923,69.7800434 C204.278923,70.4261549 203.848182,70.5338402 203.417441,70.5338402 C201.694477,70.5338402 199.863828,70.4261549 198.140864,70.4261549 C196.740956,70.4261549 195.448733,70.5338402 194.048824,70.5338402 C193.510398,70.5338402 192.864287,70.5338402 192.864287,69.7800434 C192.864287,69.1339319 193.402713,68.9185614 193.725769,68.8108761 C194.264195,68.7031909 195.125677,68.5955056 195.556418,68.0570794 C196.094844,67.1955973 195.987159,65.5803186 195.987159,64.6111513 L195.987159,58.1500362 C195.987159,56.3193869 196.094844,55.3502196 194.264195,55.0271638 C193.725769,55.0271638 193.079657,55.0271638 193.079657,54.2733671 C193.079657,53.5195703 194.264195,53.3041998 194.694936,53.1965146 C196.310215,52.7657736 198.46392,51.688921 199.648457,50.1813275 C199.863828,49.8582717 200.186884,49.4275307 201.048366,49.4275307 C201.694477,49.4275307 201.586792,50.6120685 201.586792,51.0428095 L201.586792,52.9811441 L201.694477,52.9811441 Z" id="Path"></path>
                    <path d="M228.292735,51.688921 C227.108197,51.688921 225.923659,52.6580883 225.277547,53.6272556 C224.200695,55.0271638 223.662269,57.1808689 223.662269,59.0115182 C223.662269,63.4266135 226.3544,67.9493941 230.66181,67.9493941 C233.461627,67.9493941 234.323109,66.3341153 234.96922,66.3341153 C235.184591,66.3341153 235.399961,66.6571711 235.399961,66.8725416 C235.399961,67.8417089 234.323109,68.7031909 233.676997,69.1339319 C231.954033,70.3184697 229.908013,70.9645812 227.861994,70.9645812 C222.26236,70.9645812 217.73958,66.9802268 217.73958,60.5191117 C217.73958,53.8426261 223.985324,50.1813275 229.369587,50.1813275 C230.877181,50.1813275 232.70783,50.5043833 234.000053,51.3658653 C234.75385,51.7966063 235.076905,52.2273473 235.076905,53.1965146 C235.076905,54.2733671 234.75385,57.1808689 233.461627,57.1808689 C232.277089,57.1808689 231.630977,55.6732754 231.200236,54.7041081 C230.44644,53.3041998 229.908013,51.688921 228.292735,51.688921 Z" id="Path"></path>
                    <path d="M245.41469,64.6111513 C245.41469,65.5803186 245.307004,67.1955973 245.522375,68.0570794 C245.737745,68.7031909 246.922283,68.7031909 247.568395,68.8108761 C247.999136,68.9185614 248.429877,69.1339319 248.429877,69.6723581 C248.429877,70.4261549 247.783765,70.5338402 247.245339,70.5338402 C245.63006,70.5338402 244.014781,70.4261549 242.399503,70.4261549 C240.784224,70.4261549 239.27663,70.5338402 237.661351,70.5338402 C237.122925,70.5338402 236.476814,70.4261549 236.476814,69.6723581 C236.476814,69.1339319 236.907555,68.8108761 237.338296,68.8108761 C237.876722,68.7031909 239.06126,68.7031909 239.27663,68.0570794 C239.492001,67.0879121 239.492001,65.5803186 239.492001,64.6111513 L239.492001,58.1500362 C239.492001,56.3193869 239.599686,55.3502196 237.769037,55.0271638 C237.23061,55.0271638 236.584499,55.0271638 236.584499,54.2733671 C236.584499,53.5195703 237.769037,53.3041998 238.199778,53.1965146 C239.815057,52.7657736 241.968762,51.688921 243.153299,50.1813275 C243.36867,49.8582717 243.691726,49.4275307 244.553208,49.4275307 C245.199319,49.4275307 245.091634,50.6120685 245.091634,51.0428095 L245.091634,64.6111513 L245.41469,64.6111513 Z M239.168945,44.6893796 C239.168945,42.6433599 240.891909,41.3511368 242.507188,41.3511368 C244.230152,41.3511368 245.845431,42.5356746 245.845431,44.6893796 C245.845431,46.9507699 244.230152,48.242993 242.399503,48.242993 C240.676539,48.242993 239.168945,46.8430847 239.168945,44.6893796 Z" id="Shape"></path>
                    <path d="M257.583123,66.8725416 C257.583123,66.9802268 257.583123,68.4878204 259.629143,68.8108761 C260.167569,68.9185614 260.813681,69.0262466 260.813681,69.7800434 C260.813681,70.4261549 260.38294,70.5338402 259.952199,70.5338402 C258.121549,70.5338402 256.398585,70.4261549 254.567936,70.4261549 C252.737287,70.4261549 250.906638,70.5338402 249.075988,70.5338402 C248.537562,70.5338402 248.214506,70.4261549 248.214506,69.7800434 C248.214506,69.0262466 248.752932,68.8108761 249.291359,68.8108761 C251.660434,68.4878204 251.660434,66.9802268 251.660434,66.8725416 L251.660434,46.5200289 C251.660434,44.1509534 251.76812,43.7202124 249.614414,43.2894714 C249.291359,43.2894714 248.860618,43.0741009 248.860618,42.6433599 C248.860618,41.7818778 249.93747,41.6741926 250.475896,41.6741926 C252.198861,41.4588221 253.814139,40.8127106 255.537103,40.0589138 C255.967844,39.8435433 256.506271,39.6281728 256.937012,39.6281728 C257.798494,39.6281728 257.583123,41.1357663 257.583123,41.6741926 L257.583123,66.8725416 Z" id="Path"></path>
                </g>
            </g>
        </g>
    </g>
</svg>