<?xml version="1.0" encoding="UTF-8"?>
<svg width="679px" height="280px" viewBox="0 0 679 280" version="1.1" xmlns="http://www.w3.org/2000/svg" xmlns:xlink="http://www.w3.org/1999/xlink">
    <title>EL-Black</title>
    <g id="Page-1" stroke="none" stroke-width="1" fill="none" fill-rule="evenodd">
        <g id="EL-Black" transform="translate(0.400000, 0.200000)" fill="#000000" fill-rule="nonzero">
            <path d="M529.9,278.9 C542.3,278.9 552,275.7 559,269.2 C566,262.7 569.5,253.7 569.5,242.2 L569.5,172.2 L541.6,172.2 L541.6,216.3 C541.6,219.2 541,221.4 539.9,223.1 C538.7,224.7 537.2,225.5 535.1,225.5 C533.5,225.5 532.1,224.8 531.1,223.3 C530.1,221.8 529.6,219.8 529.6,217.3 L529.6,172.2 L501.8,172.2 L501.8,222.2 C501.8,230.2 503.6,236.4 507.3,240.9 C511,245.4 516.1,247.7 522.6,247.7 C526.8,247.7 530.7,246.4 534.1,243.7 C537.6,241 540.3,237.3 542.3,232.5 L542.4,232.5 L542.4,239 C542.4,244.5 540.9,248.7 537.9,251.8 C534.9,254.9 530.8,256.4 525.7,256.4 C522.2,256.4 518.7,255.7 515.2,254.4 C511.6,253.1 508.5,251.2 505.7,248.8 L496.3,268.4 C500.7,271.9 505.8,274.5 511.7,276.3 C517.7,278 523.7,278.9 529.9,278.9 M478.9,170.7 C474.9,170.7 471.3,172.1 468.2,174.9 C465.1,177.7 462.8,181.6 461.5,186.7 L461.4,186.7 L457.9,172.3 L434.9,172.3 L434.9,246.6 L462.8,246.6 L462.8,202.5 C462.8,198.8 463.3,195.8 464.4,193.7 C465.5,191.6 466.9,190.5 468.7,190.5 C472.4,190.5 474.3,195.1 474.3,204.2 L497.8,198.2 C497.8,189.6 496.1,182.8 492.8,178 C489.5,173.1 484.8,170.7 478.9,170.7 M384.4,229.1 C382.7,229.1 381.3,228.6 380.2,227.5 C379.1,226.4 378.6,225 378.6,223.2 C378.6,221 379.3,219.2 380.8,217.7 C382.2,216.3 384.3,215.4 387,215.1 L391.6,214.5 L391.6,218.4 C391.6,221.8 390.9,224.4 389.6,226.2 C388.2,228.2 386.5,229.1 384.4,229.1 M371.1,247.7 C375.7,247.7 379.8,246.6 383.5,244.3 C387.1,242 390,238.8 392.1,234.6 L392.2,234.6 L392.5,235.8 C393.6,239.6 395.8,242.7 399.1,244.9 C402.5,247.1 406.6,248.2 411.6,248.2 C415.1,248.2 418.6,247.7 422,246.8 C425.4,245.8 428.4,244.4 431,242.3 L427.1,227.9 C425.5,229 423.8,229.5 422.2,229.5 C419.9,229.5 418.7,228.1 418.7,225.3 L418.7,201 C418.7,191.5 415.8,184 410.1,178.5 C404.4,173 396.4,170.2 386.3,170.2 C379.6,170.2 373.7,171.4 368.7,173.7 C363.7,176 359.9,179.3 357.3,183.5 C354.7,187.7 353.4,192.6 353.5,198.2 L379.6,200.2 C379.6,196.6 380.2,193.7 381.3,191.6 C382.4,189.5 384,188.5 386.1,188.5 C387.7,188.5 389,189.1 390,190.4 C391,191.6 391.4,193.5 391.4,196 C391.4,198.1 391,199.6 390.2,200.5 C389.4,201.4 388.2,201.9 386.5,202.1 L378.7,203 C369.9,204 363,206.4 358,210.4 C353,214.4 350.5,220 350.5,227.2 C350.5,233.7 352.3,238.8 356,242.5 C359.8,245.9 364.8,247.7 371.1,247.7 M330.5,170.7 C326.5,170.7 322.9,172.1 319.8,174.9 C316.7,177.7 314.4,181.6 313.1,186.7 L313,186.7 L309.5,172.3 L286.5,172.3 L286.5,246.6 L314.4,246.6 L314.4,202.5 C314.4,198.8 314.9,195.8 316,193.7 C317.1,191.6 318.5,190.5 320.3,190.5 C324,190.5 325.9,195.1 325.9,204.2 L349.4,198.2 C349.4,189.6 347.7,182.8 344.4,178 C341.1,173.1 336.4,170.7 330.5,170.7 M244,224.6 C238.9,224.6 236.4,219.5 236.4,209.3 C236.4,199 238.9,193.9 244,193.9 C249.1,193.9 251.6,199 251.6,209.3 C251.6,219.6 249.1,224.6 244,224.6 M255.4,248.1 C263,248.1 268.9,244.7 273.2,237.9 C277.5,231.1 279.6,221.6 279.6,209.4 C279.6,197.3 277.5,187.8 273.2,181 C268.9,174.1 263,170.7 255.6,170.7 C251.7,170.7 248.1,171.8 244.9,173.9 C241.7,176.1 239.3,179.1 237.7,182.9 L237.6,182.9 L237.6,139.1 L209.6,139.1 L209.6,246.5 L233.8,246.5 L236.4,234.8 L236.5,234.8 C238,239 240.5,242.3 244,244.6 C247.4,247 251.2,248.1 255.4,248.1 M200.8,172.2 L173,172.2 L173,246.5 L200.8,246.5 L200.8,172.2 Z M186.9,164.5 C191.6,164.5 195.4,163.1 198.2,160.3 C201,157.5 202.4,153.9 202.4,149.4 C202.4,144.9 201,141.2 198.2,138.5 C195.4,135.7 191.6,134.3 186.9,134.3 C182.2,134.3 178.4,135.7 175.5,138.5 C172.6,141.3 171.2,144.9 171.2,149.4 C171.2,153.9 172.6,157.6 175.5,160.3 C178.4,163.1 182.2,164.5 186.9,164.5 M167.7,219.8 L138.6,219.8 L138.6,143.5 L107.2,143.5 L107.2,246.6 L167.7,246.6 L167.7,219.8 Z" id="Shape"></path>
            <path d="M646.4,109.5 C656,109.5 663.8,107.4 669.7,103.2 C675.7,99 678.6,92.9 678.6,85.1 C678.5,79.9 676.8,75.5 673.5,72 C670.2,68.5 665.3,65.5 658.7,63.2 L650.2,60.5 C646.4,59.3 643.7,58.1 642.2,57 C640.7,55.9 640,54.4 640,52.6 C640.1,51.2 640.5,50 641.3,49.1 C642.1,48.2 643.2,47.7 644.8,47.7 C648.5,47.7 650.4,50.7 650.4,56.8 L674.7,55.1 C674,46.7 671,40.5 665.7,36.7 C660.4,32.9 653.8,31 645.9,31 C636.9,31 629.7,33.1 624.3,37.4 C618.9,41.7 616.2,47.6 616.2,55 C616.2,60.2 617.7,64.6 620.6,68.2 C623.5,71.8 628.1,74.7 634.3,76.8 L642.2,79.5 C645.8,80.7 648.4,81.9 650,83.1 C651.5,84.3 652.3,85.8 652.3,87.7 C652.3,89.2 651.7,90.5 650.6,91.4 C649.5,92.4 648,92.8 646.1,92.8 C643.7,92.8 641.8,91.9 640.5,90.1 C639.2,88.3 638.4,85.7 638.2,82.5 L614,85.4 C614.4,93.8 617.5,99.9 623.4,103.8 C629.4,107.6 637.1,109.5 646.4,109.5 M581,52.9 C583.4,53.5 585.7,53.8 587.9,53.8 C592.9,53.8 597.3,52.5 601.1,49.9 C604.9,47.3 607.8,43.6 610,38.9 C612.1,34.1 613.2,28.6 613.2,22.1 C613.2,15.4 611.7,10 608.7,6 C605.7,2 601.7,0 596.7,0 C592.5,0 588.9,1.4 586,4.3 C583.1,7.2 581.7,10.8 581.7,15.1 C581.7,19.4 583.2,23 586.2,25.8 C589.2,28.6 592.8,30 597.1,30 C600.4,30 603.7,29.1 607,27.3 C606.3,33.7 604.3,38.8 600.8,42.6 C597.3,46.3 593,48.2 587.8,48.2 C586.2,48.2 584.3,48 582.2,47.5 L581,52.9 Z M534.4,63.6 C534.6,59.2 535.4,55.8 536.8,53.4 C538.2,51 540.1,49.9 542.5,49.9 C544.9,49.9 546.7,51.1 548,53.5 C549.3,55.9 550,59.3 550.1,63.6 L534.4,63.6 Z M544.9,109.5 C553.1,109.5 560.2,107.2 566.2,102.7 C572.2,98.2 575.9,92.2 577.3,84.7 L553.7,81.4 C553.1,84.4 552,86.7 550.5,88.2 C548.9,89.8 546.9,90.6 544.4,90.6 C541.3,90.6 538.9,89.5 537.1,87.2 C535.3,84.9 534.4,81.8 534.3,77.6 L575.9,77.6 C576.5,75.4 576.8,72.2 576.8,68.1 C576.8,60.6 575.4,54.1 572.6,48.4 C569.8,42.8 565.9,38.4 560.7,35.4 C555.6,32.3 549.6,30.8 542.8,30.8 C535.7,30.8 529.5,32.4 524.1,35.6 C518.7,38.8 514.6,43.4 511.7,49.2 C508.8,55.1 507.4,61.9 507.4,69.8 C507.4,77.8 508.9,84.8 512,90.7 C515.1,96.7 519.4,101.3 525.1,104.5 C530.7,107.9 537.3,109.5 544.9,109.5 M481.2,31.5 C476.3,31.5 471.9,32.8 468.1,35.3 C464.3,37.8 461.4,41.4 459.5,46 L459.4,46 L455.9,33 L433.7,33 L433.7,107.3 L461.6,107.3 L461.6,62.2 C461.6,59.2 462.2,56.9 463.4,55.3 C464.6,53.7 466.3,52.9 468.4,52.9 C470,52.9 471.3,53.5 472.1,54.6 C473,55.8 473.4,57.4 473.4,59.6 L473.4,107.3 L501.3,107.3 L501.3,53.3 C501.3,46.5 499.5,41.1 495.8,37.2 C492.2,33.4 487.3,31.5 481.2,31.5 M391.7,86.2 C389.1,86.2 387.1,84.9 385.8,82.2 C384.5,79.5 383.8,75.5 383.8,70.1 C383.8,64.9 384.5,61 385.9,58.2 C387.3,55.5 389.2,54.1 391.7,54.1 C394.2,54.1 396.1,55.4 397.5,58.1 C398.8,60.8 399.5,64.8 399.5,70.1 C399.5,80.8 396.9,86.2 391.7,86.2 M391.7,109.5 C402.8,109.5 411.6,106 417.9,99 C424.2,92 427.4,82.3 427.4,70.1 C427.4,57.9 424.2,48.3 417.9,41.4 C411.6,34.4 402.8,31 391.7,31 C380.6,31 371.8,34.5 365.5,41.4 C359.2,48.3 356,57.9 356,70.2 C356,82.5 359.2,92.1 365.5,99.1 C371.8,106 380.6,109.5 391.7,109.5 M309.9,139.7 C322.3,139.7 332,136.5 339,130 C346,123.5 349.5,114.5 349.5,103 L349.5,33 L321.6,33 L321.6,77.1 C321.6,80 321,82.2 319.9,83.9 C318.7,85.5 317.2,86.3 315.1,86.3 C313.5,86.3 312.1,85.6 311.1,84.1 C310.1,82.6 309.6,80.6 309.6,78.1 L309.6,33 L281.8,33 L281.8,83 C281.8,91 283.6,97.2 287.3,101.7 C291,106.2 296.1,108.5 302.6,108.5 C306.8,108.5 310.7,107.2 314.1,104.5 C317.6,101.8 320.3,98.1 322.3,93.3 L322.4,93.3 L322.4,99.8 C322.4,105.3 320.9,109.5 317.9,112.6 C314.9,115.7 310.8,117.2 305.7,117.2 C302.2,117.2 298.7,116.5 295.2,115.2 C291.6,113.9 288.5,112 285.7,109.6 L276.3,129.2 C280.7,132.7 285.9,135.3 291.7,137.1 C297.7,138.8 303.7,139.7 309.9,139.7 M258.9,31.5 C254.9,31.5 251.3,32.9 248.2,35.7 C245.1,38.5 242.8,42.4 241.5,47.5 L241.4,47.5 L237.9,33.1 L214.9,33.1 L214.9,107.4 L242.8,107.4 L242.8,63.3 C242.8,59.6 243.3,56.6 244.4,54.5 C245.5,52.4 246.9,51.3 248.7,51.3 C252.4,51.3 254.3,55.9 254.3,65 L277.8,59 C277.8,50.4 276.1,43.6 272.8,38.8 C269.5,33.9 264.8,31.5 258.9,31.5 M165.5,63.6 C165.7,59.2 166.5,55.8 167.9,53.4 C169.3,51 171.2,49.9 173.6,49.9 C176,49.9 177.8,51.1 179.1,53.5 C180.4,55.9 181.1,59.3 181.2,63.6 L165.5,63.6 Z M176,109.5 C184.2,109.5 191.3,107.2 197.3,102.7 C203.3,98.2 207,92.2 208.4,84.7 L184.8,81.4 C184.2,84.4 183.1,86.7 181.6,88.2 C180,89.8 178,90.6 175.5,90.6 C172.4,90.6 170,89.5 168.2,87.2 C166.4,84.9 165.5,81.8 165.4,77.6 L207,77.6 C207.6,75.4 207.9,72.2 207.9,68.1 C207.9,60.6 206.5,54.1 203.7,48.4 C200.9,42.8 197,38.4 191.8,35.4 C186.7,32.3 180.7,30.8 173.9,30.8 C166.8,30.8 160.6,32.4 155.2,35.6 C149.8,38.8 145.7,43.4 142.8,49.2 C139.9,55.1 138.5,61.9 138.5,69.8 C138.5,77.8 140,84.8 143.1,90.7 C146.2,96.7 150.5,101.3 156.2,104.5 C161.8,107.9 168.4,109.5 176,109.5 M139.5,33.1 L109.8,33.1 L101.2,84.5 L100.9,84.5 L92.3,33.1 L62.8,33.1 L82.8,107.4 L118.8,107.4 L139.5,33.1 Z M62.1,82.9 L30.3,82.9 L30.3,65.3 L54.9,65.3 L54.9,44.3 L30.3,44.3 L30.3,28.8 L60.6,28.8 L60.6,4.3 L0,4.3 L0,107.4 L62.1,107.4 L62.1,82.9 Z" id="Shape"></path>
        </g>
    </g>
</svg>