<?xml version="1.0" encoding="UTF-8"?>
<svg width="413px" height="77px" viewBox="0 0 413 77" version="1.1" xmlns="http://www.w3.org/2000/svg" xmlns:xlink="http://www.w3.org/1999/xlink">
    <title>libraryon-purple-svg</title>
    <g id="Page-2" stroke="none" stroke-width="1" fill="none" fill-rule="evenodd">
        <g id="Artboard" transform="translate(-337.000000, -2.000000)" fill="#000000" fill-rule="nonzero">
            <g id="Group-2" transform="translate(0.000000, 0.000000)">
                <g id="libraryon-purple-svg" transform="translate(337.912088, 2.354788)">
                    <polygon id="Path" points="398.763539 3.35220675 398.763539 38.4426006 387.303812 3.35220675 373.978241 3.35220675 373.978241 74.421282 387.303812 74.421282 387.303812 39.3308522 398.763539 74.421282 412.087912 74.421282 412.087912 3.35220675"></polygon>
                    <path d="M331.653058,64.263214 C317.326303,64.263214 305.713284,52.6495966 305.713284,38.3230812 C305.713284,23.9960869 317.326303,12.3824694 331.653058,12.3824694 C345.979813,12.3824694 357.592831,23.9960869 357.592831,38.3230812 C357.592831,52.6495966 345.979813,64.263214 331.653058,64.263214 Z M331.653058,0 L273.231083,0 C252.066096,0 234.908241,17.1576153 234.908241,38.3230812 C234.908241,59.4880682 252.066096,76.6456834 273.231083,76.6456834 L331.653058,76.6456834 C352.818045,76.6456834 369.975899,59.4880682 369.975899,38.3230812 C369.975899,17.1576153 352.818045,0 331.653058,0 Z" id="Shape"></path>
                    <polygon id="Path" points="25.3187039 60.5296111 25.3187039 73.8551817 0 73.8551817 0 2.78615442 13.3261694 2.78615442 13.3261694 60.5296111"></polygon>
                    <polygon id="Path" points="29.5709825 73.8575769 42.8960741 73.8575769 42.8960741 2.78848972 29.5709825 2.78848972"></polygon>
                    <path d="M67.5709543,54.4911289 L67.5709543,49.9602911 C67.5709543,44.8080246 65.7943313,43.919773 60.6414659,43.919773 L60.6414659,60.5322458 C65.7943313,60.5322458 67.5709543,59.6433954 67.5709543,54.4911289 Z M60.6414659,16.1137969 L60.6414659,30.5942024 C65.7943313,30.5942024 66.6825829,29.705831 66.6825829,24.5535644 L66.6825829,22.1550336 C66.6825829,17.0021682 65.7943313,16.1137969 60.6414659,16.1137969 Z M80.8965249,51.7369141 L80.8965249,55.3795002 C80.8965249,68.6164493 75.8322811,73.7687158 60.6414659,73.8573374 L47.3164941,73.8573374 L47.3164941,2.7882502 L60.6414659,2.7882502 C75.8322811,2.7882502 80.0081535,7.85244607 80.0081535,22.1550336 L80.0081535,22.7769415 C80.0081535,30.5942024 76.987595,34.4145107 72.900943,36.4574774 C77.4317807,38.6782861 80.8965249,43.1200232 80.8965249,51.7369141 Z" id="Shape"></path>
                    <path d="M143.834008,48.4500119 L141.436435,16.9129479 L138.949043,48.4500119 L143.834008,48.4500119 Z M144.90106,61.7755825 L137.881992,61.7755825 L136.904759,73.8573374 L123.580386,73.8573374 L132.285659,2.7882502 L150.497392,2.7882502 L159.202665,73.8573374 L145.877095,73.8573374 L144.90106,61.7755825 Z" id="Shape"></path>
                    <polygon id="Path" points="197.747061 2.7882502 211.960045 2.7882502 217.201891 33.1699764 222.443737 2.7882502 236.656721 2.7882502 223.864077 48.983418 223.864077 73.8573374 210.538507 73.8573374 210.538507 48.983418"></polygon>
                    <path d="M98.4853919,16.1137969 L98.4853919,34.5030125 C103.638137,34.5030125 105.41488,33.6147608 105.41488,28.4618955 L105.41488,22.1550336 C105.41488,17.0021682 103.638137,16.1137969 98.4853919,16.1137969 Z M118.739852,73.8573374 L105.41488,73.8573374 L105.41488,53.869221 C105.41488,48.7169545 103.638137,47.828104 98.4853919,47.828104 L98.4853919,73.8573374 L85.1598213,73.8573374 L85.1598213,2.7882502 L98.4853919,2.7882502 C113.676207,2.7882502 118.739852,7.85245805 118.739852,22.1550336 L118.739852,28.4618955 C118.739852,36.2797552 116.341321,41.3434002 112.165928,44.3639587 C116.696885,46.2292032 118.739852,49.8716696 118.739852,56.5342154 L118.739852,73.8573374 Z" id="Shape"></path>
                    <path d="M176.789257,16.1137969 L176.789257,34.5030125 C181.942481,34.5030125 183.718506,33.6147608 183.718506,28.4618955 L183.718506,22.1550336 C183.718506,17.0021682 181.942481,16.1137969 176.789257,16.1137969 Z M197.044076,73.8573374 L183.718506,73.8573374 L183.718506,53.869221 C183.718506,48.7169545 181.942481,47.828104 176.789257,47.828104 L176.789257,73.8573374 L163.463686,73.8573374 L163.463686,2.7882502 L176.789257,2.7882502 C191.980671,2.7882502 197.044076,7.85245805 197.044076,22.1550336 L197.044076,28.4618955 C197.044076,36.2797552 194.645306,41.3434002 190.470511,44.3639587 C195.00099,46.2292032 197.044076,49.8716696 197.044076,56.5342154 L197.044076,73.8573374 Z" id="Shape"></path>
                </g>
            </g>
        </g>
    </g>
</svg>