<?xml version="1.0" encoding="UTF-8"?>
<svg width="345px" height="133px" viewBox="0 0 345 133" version="1.1" xmlns="http://www.w3.org/2000/svg" xmlns:xlink="http://www.w3.org/1999/xlink">
    <title>libraryon-white-text</title>
    <g id="Page-1" stroke="none" stroke-width="1" fill="none" fill-rule="evenodd">
        <g id="libraryon-white-text" transform="translate(0.400000, 0.400000)" fill="#FFFFFF" fill-rule="nonzero">
            <path d="M153.1,23.8 C153.1,28.1 151.6,28.8 147.3,28.8 L147.3,13.4 C151.6,13.4 153.1,14.1 153.1,18.5 L153.1,23.8 Z M147.3,2.3 L136.2,2.3 L136.2,61.6 L147.3,61.6 L147.3,40 C151.6,40 153.1,40.7 153.1,45 L153.1,61.6 L164.2,61.6 L164.2,47.2 C164.2,41.6 162.5,38.6 158.7,37 C162.2,34.5 164.2,30.2 164.2,23.7 L164.2,18.4 C164.2,6.5 160,2.3 147.3,2.3 M87.9,23.8 C87.9,28.1 86.4,28.8 82.1,28.8 L82.1,13.4 C86.4,13.4 87.9,14.1 87.9,18.5 L87.9,23.8 Z M82.1,2.3 L71,2.3 L71,61.6 L82.1,61.6 L82.1,40 C86.4,40 87.9,40.7 87.9,45 L87.9,61.6 L99,61.6 L99,47.2 C99,41.6 97.3,38.6 93.5,37 C97,34.5 99,30.2 99,23.7 L99,18.4 C98.9,6.5 94.8,2.3 82.1,2.3 M185.4,2.3 L181,27.6 L176.6,2.3 L164.7,2.3 L175.5,40.8 L175.5,61.6 L186.6,61.6 L186.6,40.8 L197.3,2.3 L185.4,2.3 Z M115.8,40.4 L117.9,14.2 L119.9,40.4 L115.8,40.4 Z M110.3,2.4 L103,61.6 L114.1,61.6 L114.9,51.5 L120.8,51.5 L121.7,61.6 L132.8,61.6 L125.5,2.4 L110.3,2.4 Z M56.3,45.4 C56.3,49.7 54.8,50.4 50.5,50.5 L50.5,36.6 C54.8,36.6 56.3,37.3 56.3,41.6 L56.3,45.4 Z M50.6,13.5 C54.9,13.5 55.7,14.2 55.6,18.6 L55.6,20.6 C55.6,24.9 54.9,25.6 50.6,25.6 L50.6,13.5 Z M60.8,30.3 C64.2,28.6 66.7,25.4 66.7,18.9 L66.7,18.4 C66.7,6.4 63.2,2.2 50.5,2.2 L39.4,2.2 L39.4,61.4 L50.6,61.4 C63.3,61.4 67.5,57.1 67.5,46 L67.5,43 C67.4,35.9 64.6,32.2 60.8,30.3 M24.7,61.6 L35.8,61.6 L35.8,2.3 L24.7,2.3 L24.7,61.6 Z M11.2,2.3 L0.1,2.3 L0.1,61.5 L21.1,61.5 L21.1,50.4 L11.1,50.4 L11.1,2.3 L11.2,2.3 Z M276.3,53.6 C264.3,53.6 254.7,43.9 254.7,32 C254.7,20 264.4,10.4 276.3,10.4 C288.2,10.4 297.9,20.1 297.9,32 C297.9,43.9 288.3,53.6 276.3,53.6 M276.3,0 L227.6,0 C209.9,0 195.7,14.3 195.7,31.9 C195.7,49.6 210,63.8 227.6,63.8 L276.3,63.8 C294,63.8 308.2,49.5 308.2,31.9 C308.2,14.3 294,0 276.3,0 M332.3,2.8 L332.3,32 L322.7,2.8 L311.6,2.8 L311.6,62 L322.7,62 L322.7,32.8 L332.3,62 L343.4,62 L343.4,2.8 L332.3,2.8 Z" id="Shape"></path>
            <path d="M252,120.9 L252,121.7 C252,124.1 250.6,125.4 248.8,125.4 C246.7,125.4 245.5,123.7 245.5,121.3 C245.5,118.9 246.7,117.2 248.8,117.2 C250.6,117.1 252,118.5 252,120.9 M248.2,128 C249.9,128 251.1,127.3 251.9,126.4 L251.9,127.7 L254.8,127.7 L254.8,110.1 L251.9,110.1 L251.9,116.2 C251.1,115.2 249.9,114.6 248.2,114.6 C244.6,114.6 242.5,117.6 242.5,121.3 C242.5,125 244.6,128 248.2,128 M229.8,127.7 L232.7,127.7 L232.7,120.2 C232.7,118.4 234,117.4 235.4,117.4 C237,117.4 237.7,118.6 237.7,120.1 L237.7,127.7 L240.6,127.7 L240.6,119.2 C240.6,116.4 239,114.6 236.3,114.6 C234.6,114.6 233.5,115.4 232.7,116.2 L232.7,114.8 L229.8,114.8 L229.8,127.7 Z M223.9,123.2 C223.9,124.8 222.4,125.6 220.8,125.6 C219.7,125.6 218.9,125 218.9,124 C218.9,122.8 219.8,122.5 221.1,122.2 L223.9,121.6 L223.9,123.2 Z M220.4,127.9 C222.1,127.9 223.4,127.4 224.2,126.5 C224.6,127.6 225.8,128 227.9,127.7 L227.9,125.4 C227.1,125.5 226.8,125.3 226.8,124.5 L226.8,119 C226.8,116 224.9,114.6 221.9,114.6 C219.1,114.6 217.2,116.3 216.5,118.4 L219.3,119 C219.6,117.8 220.4,117.1 221.8,117.1 C223.4,117.1 224,117.9 224,119.1 L224,119.3 L220.4,120 C217.9,120.5 216.1,121.6 216.1,124 C216.1,126.4 218,127.9 220.4,127.9 M214.2,110.1 L211.3,110.1 L211.3,127.7 L214.2,127.7 L214.2,110.1 Z M205.5,120.9 L205.5,121.2 C205.5,123.5 204.2,124.9 202.4,124.9 C200.4,124.9 199.2,123.5 199.2,121.1 C199.2,118.7 200.4,117.3 202.4,117.3 C204.2,117.1 205.5,118.5 205.5,120.9 M208.4,126.4 L208.4,114.8 L205.5,114.8 L205.5,116.2 C204.8,115.3 203.5,114.6 201.9,114.6 C198.4,114.6 196.3,117.5 196.3,121 C196.3,124.5 198.4,127.4 201.9,127.4 C203.5,127.4 204.8,126.7 205.5,125.8 L205.5,126.7 C205.5,129.1 204.2,130 202.2,130 C200.6,130 199.5,129.1 199.1,127.6 L196.4,128.6 C197.2,131.1 199.3,132.3 202.3,132.3 C205.8,132.4 208.4,130.2 208.4,126.4 M183.4,127.7 L186.3,127.7 L186.3,120.2 C186.3,118.4 187.6,117.4 189,117.4 C190.6,117.4 191.3,118.6 191.3,120.1 L191.3,127.7 L194.2,127.7 L194.2,119.2 C194.2,116.4 192.6,114.6 189.9,114.6 C188.2,114.6 187.1,115.4 186.3,116.2 L186.3,114.8 L183.4,114.8 L183.4,127.7 Z M169.4,110.1 L169.4,127.7 L181.3,127.7 L181.3,125 L172.5,125 L172.5,120 L179.9,120 L179.9,117.3 L172.5,117.3 L172.5,112.9 L181.3,112.9 L181.3,110.2 L169.4,110.2 L169.4,110.1 Z M161.7,110.1 L158.8,110.1 L158.8,127.7 L161.7,127.7 L161.7,110.1 Z M155.9,114.8 L153,114.8 L153,127.7 L155.9,127.7 L155.9,114.8 Z M152.9,113.1 L155.9,113.1 L155.9,110.1 L152.9,110.1 L152.9,113.1 Z M142.6,121.3 C142.6,118.7 144,117.1 146,117.1 C147.6,117.1 148.5,118.2 148.9,119.5 L151.4,118.2 C150.7,116.1 148.8,114.6 146,114.6 C142.3,114.6 139.7,117.3 139.7,121.3 C139.7,125.3 142.3,128 146,128 C148.8,128 150.8,126.4 151.4,124.3 L148.9,123 C148.5,124.4 147.6,125.5 146,125.5 C144,125.4 142.6,123.9 142.6,121.3 M126.9,127.7 L129.8,127.7 L129.8,120.2 C129.8,118.4 131.1,117.4 132.5,117.4 C134.1,117.4 134.8,118.6 134.8,120.1 L134.8,127.7 L137.7,127.7 L137.7,119.2 C137.7,116.4 136.1,114.6 133.4,114.6 C131.7,114.6 130.6,115.4 129.8,116.2 L129.8,114.8 L126.9,114.8 L126.9,127.7 Z M124.1,114.8 L121.2,114.8 L121.2,122.4 C121.2,124.2 119.9,125.2 118.6,125.2 C117,125.2 116.3,124.2 116.3,122.6 L116.3,114.7 L113.4,114.7 L113.4,123.2 C113.4,126 115.1,127.8 117.8,127.8 C119.5,127.8 120.6,127 121.3,126.2 L121.3,127.6 L124.2,127.6 L124.2,114.8 L124.1,114.8 Z M101.9,121.3 C101.9,118.7 103.1,117.1 105.1,117.1 C107.1,117.1 108.3,118.7 108.3,121.3 C108.3,123.9 107,125.5 105.1,125.5 C103.2,125.5 101.9,123.9 101.9,121.3 M111.3,121.3 C111.3,117.3 108.7,114.6 105.1,114.6 C101.5,114.6 98.9,117.3 98.9,121.3 C98.9,125.3 101.5,128 105.1,128 C108.8,128 111.3,125.3 111.3,121.3 M86,118.9 C86,115.1 88.1,112.6 90.9,112.6 C93,112.6 94.5,113.8 95,115.9 L97.9,114.9 C96.9,111.8 94.4,109.8 90.9,109.8 C86.2,109.8 82.8,113.5 82.8,118.9 C82.8,124.2 86.2,128 90.9,128 C94.5,128 96.9,126 97.9,122.9 L95,121.9 C94.5,124 93,125.2 90.9,125.2 C88.1,125.2 86,122.7 86,118.9 M65.7,125.2 C66.9,127 69.2,127.9 71.6,127.9 C74.5,127.9 76.9,126.2 76.9,123.6 C76.9,120.7 74.2,120.2 72,119.7 C70.4,119.4 69.5,119.2 69.5,118.3 C69.5,117.4 70.3,116.9 71.5,116.9 C72.9,116.9 74.1,117.6 74.9,118.7 L76.9,116.9 C76,115.5 74,114.5 71.7,114.5 C68.7,114.5 66.7,116.2 66.7,118.6 C66.7,121.3 69,121.9 71.1,122.3 C73.1,122.7 74.2,122.8 74.2,123.9 C74.2,125.1 73,125.5 71.8,125.5 C70.3,125.5 68.8,124.7 68.1,123.4 L65.7,125.2 Z M59.2,124.5 C59.2,127.1 60.5,127.9 63,127.9 C63.8,127.9 64.5,127.8 65,127.7 L65,125.2 C64.6,125.2 64.3,125.3 63.8,125.3 C62.7,125.3 62.1,125.2 62.1,124 L62.1,117.3 L64.8,117.3 L64.8,114.8 L62.1,114.8 L62.1,111 L59.2,111 L59.2,114.8 L57.4,114.8 L57.4,117.3 L59.2,117.3 L59.2,124.5 L59.2,124.5 Z M56.9,114.8 C56.7,114.8 56.4,114.8 56.1,114.8 C54.5,114.8 53.1,115.6 52.6,116.8 L52.6,114.9 L49.6,114.9 L49.6,127.8 L52.5,127.8 L52.5,121 C52.5,118.9 53.9,117.7 55.8,117.7 C56.2,117.7 56.5,117.7 56.9,117.8 L56.9,114.8 Z M39.8,113.6 L42.6,121 L37.1,121 L39.8,113.6 Z M38.1,110.1 L31.4,127.7 L34.5,127.7 L36,123.7 L43.6,123.7 L45.1,127.7 L48.3,127.7 L41.6,110.1 L38.1,110.1 Z M21.3,128.9 L26.6,114.8 L23.6,114.8 L20.5,123.8 L17.3,114.8 L14.2,114.8 L18.9,127.2 L18.4,128.4 C18,129.4 17.5,129.7 16.5,129.7 C16.1,129.7 15.9,129.7 15.5,129.6 L15.5,132.1 C15.9,132.1 16.1,132.2 16.7,132.2 C19.4,132.2 20.6,130.8 21.3,128.9 M4.5,120.9 C4.5,118.5 5.9,117.2 7.7,117.2 C9.8,117.2 11,118.9 11,121.3 C11,123.7 9.8,125.4 7.7,125.4 C5.9,125.4 4.5,124.1 4.5,121.7 L4.5,120.9 Z M8.3,128 C11.9,128 14,125 14,121.3 C14,117.6 11.9,114.6 8.3,114.6 C6.6,114.6 5.4,115.3 4.6,116.2 L4.6,110.1 L1.6,110.1 L1.6,127.7 L4.5,127.7 L4.5,126.4 C5.4,127.3 6.6,128 8.3,128" id="Shape"></path>
            <path d="M341.2,92.6 L341.2,92.9 C341.2,95.2 339.9,96.6 338.1,96.6 C336.1,96.6 334.9,95.2 334.9,92.8 C334.9,90.4 336.1,89 338.1,89 C339.9,88.9 341.2,90.2 341.2,92.6 M344.1,98.1 L344.1,86.6 L341.2,86.6 L341.2,88 C340.5,87.1 339.2,86.4 337.6,86.4 C334.1,86.4 332,89.3 332,92.8 C332,96.3 334.1,99.2 337.6,99.2 C339.2,99.2 340.5,98.5 341.2,97.6 L341.2,98.5 C341.2,100.9 339.9,101.8 337.9,101.8 C336.3,101.8 335.2,100.9 334.8,99.4 L332.1,100.4 C332.9,102.9 335,104.1 338,104.1 C341.5,104.1 344.1,101.9 344.1,98.1 M319.1,99.4 L322,99.4 L322,91.9 C322,90.1 323.3,89.1 324.7,89.1 C326.3,89.1 327,90.3 327,91.8 L327,99.4 L329.9,99.4 L329.9,90.9 C329.9,88.1 328.3,86.3 325.6,86.3 C323.9,86.3 322.8,87.1 322,87.9 L322,86.6 L319.1,86.6 L319.1,99.4 Z M316.2,86.6 L313.3,86.6 L313.3,99.5 L316.2,99.5 L316.2,86.6 Z M313.2,84.8 L316.2,84.8 L316.2,81.8 L313.2,81.8 L313.2,84.8 Z M307.6,92.6 L307.6,93.4 C307.6,95.8 306.2,97.1 304.4,97.1 C302.3,97.1 301.1,95.4 301.1,93 C301.1,90.6 302.3,88.9 304.4,88.9 C306.2,88.9 307.6,90.2 307.6,92.6 M303.8,99.7 C305.5,99.7 306.7,99 307.5,98.1 L307.5,99.4 L310.4,99.4 L310.4,81.8 L307.5,81.8 L307.5,87.9 C306.7,86.9 305.5,86.3 303.8,86.3 C300.2,86.3 298.1,89.3 298.1,93 C298.2,96.6 300.2,99.7 303.8,99.7 M285.4,99.4 L288.3,99.4 L288.3,91.9 C288.3,90.1 289.6,89.1 291,89.1 C292.6,89.1 293.3,90.3 293.3,91.8 L293.3,99.4 L296.2,99.4 L296.2,90.9 C296.2,88.1 294.6,86.3 291.9,86.3 C290.2,86.3 289.1,87.1 288.3,87.9 L288.3,86.6 L285.4,86.6 L285.4,99.4 Z M282.6,86.6 L279.6,86.6 L279.6,94.2 C279.6,96 278.3,97 277,97 C275.4,97 274.7,96 274.7,94.4 L274.7,86.6 L271.8,86.6 L271.8,95.1 C271.8,97.9 273.5,99.7 276.2,99.7 C277.9,99.7 279,98.9 279.7,98.1 L279.7,99.5 L282.6,99.5 L282.6,86.6 Z M270.5,81.6 C270,81.6 269.7,81.6 269.3,81.6 C266.4,81.6 264.9,83.1 264.9,85.8 L264.9,86.6 L263.1,86.6 L263.1,89.1 L264.9,89.1 L264.9,99.5 L267.8,99.5 L267.8,89.1 L270.4,89.1 L270.4,86.6 L267.8,86.6 L267.8,86 C267.8,84.5 268.4,84.2 269.6,84.2 C270,84.2 270.1,84.2 270.5,84.2 L270.5,81.6 L270.5,81.6 Z M246.2,99.4 L249.1,99.4 L249.1,91.9 C249.1,90.1 250.4,89.1 251.8,89.1 C253.4,89.1 254.1,90.3 254.1,91.8 L254.1,99.4 L257,99.4 L257,90.9 C257,88.1 255.4,86.3 252.7,86.3 C251,86.3 249.9,87.1 249.1,87.9 L249.1,86.6 L246.2,86.6 L246.2,99.4 Z M241,90.6 C241,94.4 238.9,96.9 236,96.9 C233,96.9 231,94.4 231,90.6 C231,86.8 233.1,84.3 236,84.3 C238.9,84.3 241,86.8 241,90.6 M227.7,90.6 C227.7,95.9 231.1,99.7 235.9,99.7 C240.7,99.7 244.1,96 244.1,90.6 C244.1,85.3 240.7,81.5 235.9,81.5 C231.2,81.6 227.7,85.3 227.7,90.6 M221.9,100.6 L227.2,86.5 L224.2,86.5 L221.1,95.5 L217.9,86.5 L214.8,86.5 L219.5,98.9 L219,100.1 C218.6,101.1 218.1,101.4 217.1,101.4 C216.7,101.4 216.5,101.4 216.1,101.3 L216.1,103.8 C216.5,103.8 216.7,103.9 217.3,103.9 C220,103.9 221.2,102.6 221.9,100.6 M214.3,86.5 C214.1,86.5 213.8,86.5 213.5,86.5 C211.9,86.5 210.5,87.3 210,88.5 L210,86.6 L207.1,86.6 L207.1,99.5 L210,99.5 L210,92.7 C210,90.6 211.4,89.4 213.3,89.4 C213.7,89.4 214,89.4 214.4,89.5 L214.4,86.5 L214.3,86.5 Z M201.1,94.9 C201.1,96.5 199.6,97.3 198,97.3 C196.9,97.3 196.1,96.7 196.1,95.7 C196.1,94.5 197,94.2 198.3,93.9 L201.1,93.3 L201.1,94.9 Z M197.6,99.6 C199.3,99.6 200.6,99.1 201.4,98.2 C201.8,99.3 203,99.7 205.1,99.4 L205.1,97.1 C204.3,97.2 204,97 204,96.2 L204,90.7 C204,87.7 202.1,86.3 199.1,86.3 C196.3,86.3 194.4,88 193.7,90.1 L196.5,90.7 C196.8,89.4 197.6,88.8 199,88.8 C200.6,88.8 201.2,89.6 201.2,90.8 L201.2,91 L197.6,91.7 C195.1,92.2 193.3,93.3 193.3,95.7 C193.3,98.1 195.2,99.6 197.6,99.6 M192.8,86.5 C192.6,86.5 192.3,86.5 192,86.5 C190.4,86.5 189,87.3 188.5,88.5 L188.5,86.6 L185.6,86.6 L185.6,99.5 L188.5,99.5 L188.5,92.7 C188.5,90.6 189.9,89.4 191.8,89.4 C192.2,89.4 192.5,89.4 192.9,89.5 L192.9,86.5 L192.8,86.5 Z M174,92.6 C174,90.2 175.4,88.8 177.2,88.8 C179.3,88.8 180.5,90.5 180.5,92.9 C180.5,95.4 179.3,97 177.2,97 C175.4,97 174,95.7 174,93.3 L174,92.6 Z M177.8,99.7 C181.4,99.7 183.5,96.7 183.5,93 C183.5,89.3 181.4,86.3 177.8,86.3 C176.1,86.3 174.9,87 174.1,87.9 L174.1,81.8 L171.2,81.8 L171.2,99.4 L174.1,99.4 L174.1,98.1 C174.9,99 176.1,99.7 177.8,99.7 M168.3,86.6 L165.4,86.6 L165.4,99.5 L168.3,99.5 L168.3,86.6 Z M165.3,84.8 L168.3,84.8 L168.3,81.8 L165.3,81.8 L165.3,84.8 Z M152.3,99.4 L163.7,99.4 L163.7,96.7 L155.4,96.7 L155.4,81.9 L152.3,81.9 L152.3,99.4 Z M140.7,100.6 L146,86.5 L143,86.5 L139.9,95.5 L136.7,86.5 L133.6,86.5 L138.3,98.9 L137.8,100.1 C137.4,101.1 136.9,101.4 135.9,101.4 C135.5,101.4 135.3,101.4 134.9,101.3 L134.9,103.8 C135.3,103.8 135.5,103.9 136.1,103.9 C138.9,103.9 140,102.6 140.7,100.6 M123.9,92.6 C123.9,90.2 125.3,88.8 127.1,88.8 C129.2,88.8 130.4,90.5 130.4,92.9 C130.4,95.4 129.2,97 127.1,97 C125.3,97 123.9,95.7 123.9,93.3 L123.9,92.6 Z M127.7,99.7 C131.3,99.7 133.4,96.7 133.4,93 C133.4,89.3 131.3,86.3 127.7,86.3 C126,86.3 124.8,87 124,87.9 L124,81.8 L121.1,81.8 L121.1,99.4 L124,99.4 L124,98.1 C124.8,99 126,99.7 127.7,99.7 M110.5,92.6 L110.5,93.4 C110.5,95.8 109.1,97.1 107.3,97.1 C105.2,97.1 104,95.4 104,93 C104,90.6 105.2,88.9 107.3,88.9 C109.2,88.9 110.5,90.2 110.5,92.6 M106.8,99.7 C108.5,99.7 109.7,99 110.5,98.1 L110.5,99.4 L113.4,99.4 L113.4,81.8 L110.5,81.8 L110.5,87.9 C109.7,86.9 108.5,86.3 106.8,86.3 C103.2,86.3 101.1,89.3 101.1,93 C101.1,96.6 103.2,99.7 106.8,99.7 M94.2,88.8 C96.1,88.8 96.9,90 97,91.4 L91.1,91.4 C91.5,89.7 92.7,88.8 94.2,88.8 M94.4,99.7 C97,99.7 99,98.4 99.9,96.1 L97.4,95.1 C97,96.4 95.9,97.2 94.4,97.2 C92.5,97.2 91.2,95.9 91,93.6 L100,93.6 L100,92.6 C100,89.1 98,86.3 94.3,86.3 C90.7,86.3 88.2,89.2 88.2,93 C88.1,97 90.7,99.7 94.4,99.7 M81.3,96.2 C81.3,98.8 82.6,99.6 85.1,99.6 C85.9,99.6 86.6,99.5 87.1,99.4 L87.1,96.9 C86.7,96.9 86.4,97 85.9,97 C84.8,97 84.2,96.9 84.2,95.7 L84.2,89 L86.9,89 L86.9,86.6 L84.2,86.6 L84.2,82.8 L81.3,82.8 L81.3,86.6 L79.5,86.6 L79.5,89.1 L81.3,89.1 L81.3,96.2 L81.3,96.2 Z M79,86.5 C78.8,86.5 78.5,86.5 78.2,86.5 C76.6,86.5 75.2,87.3 74.7,88.5 L74.7,86.6 L71.8,86.6 L71.8,99.5 L74.7,99.5 L74.7,92.7 C74.7,90.6 76.1,89.4 78,89.4 C78.4,89.4 78.7,89.4 79.1,89.5 L79.1,86.5 L79,86.5 Z M60.2,93 C60.2,90.4 61.5,88.8 63.4,88.8 C65.4,88.8 66.6,90.4 66.6,93 C66.6,95.6 65.3,97.2 63.4,97.2 C61.5,97.2 60.2,95.6 60.2,93 M69.6,93 C69.6,89 67,86.3 63.4,86.3 C59.8,86.3 57.2,89 57.2,93 C57.2,97 59.8,99.7 63.4,99.7 C67.1,99.7 69.6,97 69.6,93 M46.6,92.6 C46.6,90.2 48,88.8 49.8,88.8 C51.9,88.8 53.1,90.5 53.1,92.9 C53.1,95.4 51.9,97 49.8,97 C48,97 46.6,95.7 46.6,93.3 L46.6,92.6 Z M50.4,99.7 C54,99.7 56.1,96.7 56.1,93 C56.1,89.3 54,86.3 50.4,86.3 C48.7,86.3 47.5,87 46.7,87.9 L46.7,86.6 L43.8,86.6 L43.8,103.9 L46.7,103.9 L46.7,98.1 C47.5,99 48.7,99.7 50.4,99.7 M32.3,92.6 C32.3,90.2 33.7,88.8 35.5,88.8 C37.6,88.8 38.8,90.5 38.8,92.9 C38.8,95.4 37.6,97 35.5,97 C33.7,97 32.3,95.7 32.3,93.3 L32.3,92.6 Z M36,99.7 C39.6,99.7 41.7,96.7 41.7,93 C41.7,89.3 39.6,86.3 36,86.3 C34.3,86.3 33.1,87 32.3,87.9 L32.3,86.6 L29.4,86.6 L29.4,103.9 L32.3,103.9 L32.3,98.1 C33.1,99 34.4,99.7 36,99.7 M26.5,86.6 L23.6,86.6 L23.6,94.2 C23.6,96 22.3,97 21,97 C19.4,97 18.7,96 18.7,94.4 L18.7,86.6 L15.8,86.6 L15.8,95.1 C15.8,97.9 17.5,99.7 20.2,99.7 C21.9,99.7 23,98.9 23.7,98.1 L23.7,99.5 L26.6,99.5 L26.6,86.6 L26.5,86.6 Z M0,96 C1.4,98.3 4.4,99.7 7.4,99.7 C11,99.7 14.1,97.6 14.1,94.1 C14.1,90.3 10.7,89.6 7.9,89 C5.5,88.5 4.2,88.1 4.2,86.6 C4.2,85.2 5.5,84.2 7.4,84.2 C9.5,84.2 10.8,85.3 11.7,86.8 L14,84.8 C12.8,83 10.5,81.5 7.5,81.5 C3.9,81.5 1.2,83.6 1.2,86.8 C1.2,90.2 4,91 6.7,91.7 C9.3,92.3 11.2,92.6 11.2,94.4 C11.2,96.1 9.7,97 7.7,97 C5.7,97 3.9,95.9 2.6,94 L0,96 Z" id="Shape"></path>
        </g>
    </g>
</svg>